<?xml version="1.0" encoding="UTF-8"?>
<svg version="1.1" xmlns="http://www.w3.org/2000/svg" width="437" height="441">
<path d="M0 0 C7.12231315 0.84553511 14.28348871 0.65353722 21.44356251 0.62651539 C23.08602438 0.62408489 24.72848699 0.62211093 26.37094992 0.62055224 C29.93184189 0.61618933 33.49270752 0.60861024 37.05358791 0.59854984 C42.8478859 0.58218545 48.6421837 0.57279022 54.43649769 0.56419849 C62.84721336 0.55109123 71.25791763 0.53475289 79.66862392 0.51664639 C92.95698858 0.48842639 106.24535631 0.47177351 119.53374195 0.45717335 C124.08109096 0.45204944 128.62843992 0.44687543 133.17578888 0.4417038 C134.31206079 0.44041776 135.4483327 0.43913173 136.6190371 0.43780673 C149.54351379 0.42308308 162.46798789 0.40659801 175.39246082 0.38889027 C176.57359613 0.38727552 177.75473144 0.38566078 178.97165873 0.38399711 C198.13842228 0.35742648 217.30515101 0.31966245 236.47188846 0.2787017 C256.14796148 0.23700961 275.82401603 0.21055361 295.50012892 0.19749373 C307.63946602 0.18888593 319.77865416 0.16780727 331.91793867 0.130865 C340.2278199 0.1066421 348.5376374 0.09689167 356.84755347 0.09868506 C361.6460654 0.09926446 366.44433691 0.09320991 371.2427969 0.06981373 C375.6313524 0.04854749 380.01951881 0.04554962 384.40810641 0.05736908 C385.99942996 0.05836969 387.59077482 0.05252876 389.18204389 0.03932343 C391.33830846 0.02240204 393.49313145 0.02993547 395.64938545 0.04377937 C396.84897969 0.04171842 398.04857392 0.03965747 399.28451949 0.03753406 C402.31653309 0.53317738 402.31653309 0.53317738 404.70176953 2.12960166 C406.88802166 5.38383817 406.81787233 7.56908585 406.81989765 11.47978687 C406.82571141 12.18219057 406.83152518 12.88459427 406.83751512 13.60828292 C406.85217245 15.97397359 406.8382041 18.33863598 406.82446766 20.70431995 C406.82907433 22.41259417 406.83542567 24.12086443 406.84337664 25.82912636 C406.86012527 30.53272533 406.85179856 35.23600105 406.83943176 39.93960142 C406.83040616 45.00852562 406.84433859 50.07739302 406.85535145 55.14630604 C406.87316793 65.0800035 406.86928277 75.0135803 406.85770088 84.94728255 C406.84867913 93.01829283 406.84743711 101.08926922 406.85179615 109.16028309 C406.85240908 110.30758579 406.85302201 111.45488849 406.85365352 112.63695794 C406.85493238 114.96744689 406.85622923 117.29793583 406.85754389 119.62842476 C406.86895885 141.49794901 406.8558216 163.36740626 406.83434242 185.23691952 C406.81647062 204.01506768 406.81957447 222.79311694 406.83801746 241.57126331 C406.85940799 263.36081255 406.86786013 285.15030303 406.85556841 306.9398613 C406.85429417 309.26193141 406.85303669 311.58400153 406.85179615 313.90607166 C406.8508705 315.61996994 406.8508705 315.61996994 406.84992614 317.36849242 C406.84646779 325.4328113 406.85231204 333.49709301 406.86171436 341.56140614 C406.87291554 351.38482437 406.86993397 361.2081147 406.84859139 371.03151822 C406.83805561 376.04667309 406.83400206 381.06161447 406.847188 386.07676792 C406.85906554 390.66354918 406.85262641 395.2499181 406.83127779 399.8366617 C406.82679196 401.50012438 406.8291221 403.16362156 406.83878094 404.82706225 C406.85086796 407.08073272 406.83855055 409.33297329 406.81989765 411.58656788 C406.81924824 412.84051444 406.81859883 414.094461 406.81792974 415.38640594 C406.31653309 418.53317738 406.31653309 418.53317738 404.71745831 420.93622935 C401.47040714 423.0959684 399.28901506 423.03231016 395.39836502 423.03095531 C394.69903847 423.03616988 393.99971193 423.04138445 393.27919367 423.04675704 C390.92396253 423.05940072 388.56978923 423.04340644 386.21458912 423.02765369 C384.5138532 423.03082881 382.81311978 423.03575495 381.11239344 423.04228652 C376.42965193 423.055144 371.74725492 423.04295413 367.06453598 423.02675796 C362.0181372 423.01362675 356.97177767 423.02349589 351.92537403 423.03052235 C342.03611709 423.04061742 332.14699366 423.02930943 322.25775331 423.01082174 C310.75009139 422.99007965 299.24245855 422.99019343 287.73478145 422.9911669 C267.20788591 422.99216872 246.68105264 422.97382932 226.15417957 422.94479847 C206.21894668 422.91661881 186.2837686 422.90245704 166.34851551 422.90378284 C165.12062044 422.90386276 163.89272536 422.90394267 162.62762135 422.904025 C160.78901693 422.90414607 160.78901693 422.90414607 158.91326898 422.90426958 C136.2416032 422.90564809 113.56996079 422.89387633 90.89830257 422.87596314 C82.8695951 422.86992188 74.84089191 422.86780301 66.81218243 422.86689854 C57.03377974 422.86553642 47.25541642 422.85663721 37.47703045 422.83823292 C32.48433528 422.82897799 27.49169058 422.82291289 22.49898624 422.82542133 C17.93395053 422.82760375 13.36902665 422.82062185 8.80401427 422.80612428 C7.14729864 422.80248358 5.49057151 422.8022506 3.83385538 422.80565886 C1.5920557 422.80976214 -0.64937275 422.80170879 -2.89113998 422.79044628 C-4.13939074 422.78903743 -5.3876415 422.78762858 -6.67371804 422.78617704 C-9.68346691 422.53317738 -9.68346691 422.53317738 -12.68346691 420.53317738 C-13.06822777 417.52368832 -13.06822777 417.52368832 -13.08219433 413.56323719 C-13.08884116 412.83434743 -13.09548798 412.10545766 -13.10233623 411.35448033 C-13.12111018 408.88802832 -13.1183485 406.42205644 -13.11583996 403.95554066 C-13.12486535 402.18070929 -13.13519447 400.40588415 -13.14672375 398.63106728 C-13.17460856 393.74029104 -13.18364144 388.84963134 -13.18957782 383.95878577 C-13.19906499 378.70534573 -13.22540451 373.45198711 -13.24958324 368.19859791 C-13.29405793 357.92964643 -13.32216058 347.66071025 -13.34490663 337.39169019 C-13.36383081 329.06542087 -13.38996416 320.73920127 -13.42101574 312.41296864 C-13.42761662 310.64073174 -13.42761662 310.64073174 -13.43435085 308.83269209 C-13.44329433 306.43527896 -13.45224072 304.03786585 -13.46118999 301.64045274 C-13.64580132 251.44987449 -13.70734573 201.25922426 -13.70299816 151.06833363 C-13.70292381 149.92632401 -13.70284946 148.7843144 -13.70277286 147.60769844 C-13.70104767 124.52650146 -13.69148985 101.44534014 -13.65626335 78.36416817 C-13.64557237 71.29260527 -13.63795074 64.22104003 -13.63115221 57.14947242 C-13.62546635 51.5754491 -13.61528402 46.00145912 -13.60142404 40.42745042 C-13.59402909 37.05407622 -13.59073993 33.68070732 -13.58860934 30.30732608 C-13.58677298 28.76435941 -13.58320532 27.22139362 -13.57773149 25.67843556 C-13.57049664 23.5820336 -13.56947239 21.48571463 -13.56994152 19.38930225 C-13.5666106 17.64394829 -13.5666106 17.64394829 -13.56321239 15.86333466 C-13.6897034 12.3604729 -14.12841375 8.99194251 -14.68346691 5.53317738 C-10.93346691 2.53317738 -10.93346691 2.53317738 -8.68346691 2.53317738 C-8.68346691 1.87317738 -8.68346691 1.21317738 -8.68346691 0.53317738 C-5.51297082 -0.38728923 -3.30796379 -0.41923339 0 0 Z M-8.68346691 7.53317738 C-8.87650773 10.02930854 -8.94402098 12.4139959 -8.92397594 14.91089344 C-8.92568479 15.68031013 -8.92739364 16.44972683 -8.92915428 17.24245918 C-8.93246254 19.83441283 -8.92142367 22.42611064 -8.91051769 25.01804066 C-8.90995387 26.87052879 -8.91026958 28.72301738 -8.9114027 30.57550526 C-8.91197833 35.61658722 -8.90019007 40.65757469 -8.88625479 45.69863462 C-8.87378239 50.96239625 -8.87257969 56.22615985 -8.87020397 61.48993397 C-8.86397891 71.46302473 -8.84755425 81.43607183 -8.82750499 91.40914333 C-8.80517786 102.76084187 -8.79416059 114.11254246 -8.78411412 125.46425748 C-8.76318889 148.82058835 -8.72799303 172.17688042 -8.68346691 195.53317738 C-3.21739364 197.3552018 2.60563389 195.60173733 7.86340809 193.52927113 C14.3183641 190.24764081 17.75601504 186.20039478 20.56653309 179.59567738 C22.51988198 171.61950275 22.46365549 163.68777382 22.49231434 155.52145863 C22.5155155 152.96350771 22.53963295 150.40556498 22.56457996 147.8476305 C22.59961166 143.84985205 22.62900972 139.85262404 22.64246082 135.85471058 C22.65804846 131.97242971 22.69832435 128.09100865 22.74231434 124.20895863 C22.74040592 123.03247257 22.73849751 121.85598652 22.73653126 120.64384937 C22.89980594 109.41229595 24.96281229 97.66413228 33.31653309 89.53317738 C42.5005021 81.94340676 52.7272374 79.35365629 64.46106434 79.43552113 C65.23085117 79.43693607 66.00063801 79.43835102 66.79375172 79.43980885 C69.23888597 79.44538131 71.68392677 79.45792867 74.12903309 79.47067738 C75.79244322 79.47569594 77.45585479 79.48025822 79.11926746 79.48434925 C83.18508715 79.49448845 87.2507062 79.51406905 91.31653309 79.53317738 C90.98653309 87.78317738 90.65653309 96.03317738 90.31653309 104.53317738 C82.75403309 105.34567738 82.75403309 105.34567738 80.41589832 105.57931995 C74.78962363 106.23537212 69.68859703 107.35357298 65.39075184 111.30270863 C56.09604363 124.99603931 58.9629887 145.3095003 58.93567371 161.11008167 C58.92609635 164.41163885 58.8922886 167.71229389 58.85559559 171.01364613 C58.86064106 172.00664219 58.86568653 172.99963825 58.8708849 174.02272511 C58.74299463 183.2314553 56.60165844 191.57464574 50.31653309 198.53317738 C50.31653309 199.19317738 50.31653309 199.85317738 50.31653309 200.53317738 C49.65653309 200.53317738 48.99653309 200.53317738 48.31653309 200.53317738 C48.31653309 201.19317738 48.31653309 201.85317738 48.31653309 202.53317738 C47.6011034 202.80903675 46.88567371 203.08489613 46.14856434 203.36911488 C43.35914454 204.5156626 40.69362951 205.79544852 38.00403309 207.15817738 C37.12102528 207.604193 36.23801746 208.05020863 35.32825184 208.50973988 C34.66438465 208.84747425 34.00051746 209.18520863 33.31653309 209.53317738 C36.13501508 211.47817281 36.13501508 211.47817281 38.51575184 212.72458363 C47.29734765 217.56342214 54.14746191 223.8395479 57.31653309 233.53317738 C58.06818841 236.80088432 58.45250178 239.85921641 58.50598621 243.20895863 C58.52270374 244.10759632 58.53942127 245.00623402 58.55664539 245.93210316 C58.57022083 246.89358265 58.58379627 247.85506214 58.59778309 248.84567738 C58.61619251 249.85098499 58.63460194 250.85629261 58.65356922 251.89206409 C58.71217335 255.10571035 58.76497018 258.31941094 58.81653309 261.53317738 C57.31706443 286.79242123 57.31706443 286.79242123 66.50403309 308.84567738 C74.38388463 313.5735883 82.2554216 314.05627677 91.31653309 314.53317738 C90.98653309 322.78317738 90.65653309 331.03317738 90.31653309 339.53317738 C85.22974535 339.60247267 80.14462967 339.66207501 75.05774403 339.6979723 C73.33145024 339.71295413 71.60519383 339.73334677 69.87903309 339.75949574 C54.69832168 339.98351665 44.2391395 338.87381983 32.31653309 328.53317738 C24.73352625 320.98577151 22.88072378 309.69544763 22.76218128 299.43463612 C22.76722675 298.23738911 22.77227222 297.0401421 22.77747059 295.80661488 C22.76567768 294.53774433 22.75388477 293.26887379 22.7417345 291.96155262 C22.71262525 288.6214391 22.69901209 285.28210949 22.69489002 281.94192982 C22.68712723 277.23894924 22.65852577 272.53620102 22.61990833 267.83337879 C22.60046749 265.34025404 22.59092261 262.84702526 22.59299183 260.35382557 C22.52439181 249.09875695 21.87493944 239.22392674 13.69153309 230.84567738 C8.54001916 226.91699756 2.63780638 224.41533658 -3.85583019 224.4894762 C-5.11895031 224.50389759 -6.38207043 224.51831898 -7.68346691 224.53317738 C-7.70679291 249.54959571 -7.72444461 274.56601242 -7.73527908 299.58243942 C-7.74044268 311.19712595 -7.74748658 322.81180573 -7.75890636 334.42648792 C-7.76885127 344.54591249 -7.77531987 354.66533217 -7.77755541 364.78476149 C-7.77886284 370.14645718 -7.78195077 375.5081389 -7.78919697 380.86983013 C-7.79595413 385.91022284 -7.7980845 390.95059574 -7.79657459 395.99099255 C-7.79685106 397.84662706 -7.79885797 399.70226219 -7.80267239 401.5578928 C-7.8076049 404.07990681 -7.80646685 406.6018448 -7.80372143 409.12386036 C-7.80663427 409.86800959 -7.80954711 410.61215882 -7.81254822 411.37885803 C-8.0999573 414.74140536 -8.0999573 414.74140536 -6.68346691 417.53317738 C-4.5316959 417.63210983 -2.37660404 417.65873475 -0.22255993 417.65901852 C0.46377403 417.66047196 1.150108 417.6619254 1.85723996 417.66342288 C4.18597774 417.66710872 6.51465112 417.6635846 8.84338856 417.66016102 C10.51820821 417.66131182 12.19302762 417.66289906 13.86784649 417.66488826 C18.49270228 417.66908724 23.1175376 417.66698835 27.74239349 417.66390204 C32.72131144 417.66165046 37.70022572 417.66512634 42.67914295 417.66788197 C52.44175918 417.67234126 62.20436774 417.67136249 71.96698427 417.66846932 C79.89744569 417.66621591 87.82790494 417.6659025 95.75836658 417.66699314 C96.88473904 417.66714637 98.01111149 417.66729961 99.17161644 417.66745748 C101.45943117 417.66777719 103.74724591 417.6681014 106.03506064 417.66843008 C127.5153117 417.67128533 148.9955585 417.66799713 170.47580886 417.66262971 C188.92857844 417.65816163 207.38134174 417.65893755 225.83411121 417.66354847 C247.23465357 417.66889343 268.6351922 417.67101064 290.03573513 417.66793621 C292.31538995 417.66761764 294.59504477 417.66730327 296.87469959 417.66699314 C298.5573892 417.66676173 298.5573892 417.66676173 300.27407253 417.66652564 C308.19999047 417.66566025 316.12590604 417.66712384 324.05182362 417.66947269 C333.70371215 417.67227002 343.35559255 417.67153386 353.00748014 417.66619195 C357.93711419 417.66355402 362.86673464 417.66255141 367.7963686 417.6658411 C372.30155352 417.6688022 376.80671215 417.6672144 381.31189466 417.66186355 C382.94915276 417.66073856 384.58641305 417.66133233 386.22366977 417.66373934 C388.43435432 417.66674219 390.64494653 417.66370004 392.85562611 417.65901852 C394.70424087 417.65877499 394.70424087 417.65877499 396.59020138 417.65852654 C399.23034592 417.84399257 399.23034592 417.84399257 400.31653309 416.53317738 C400.4266328 414.0546507 400.47149239 411.60338674 400.47475147 409.12386036 C400.48215844 407.94651564 400.48215844 407.94651564 400.48971504 406.74538618 C400.50516693 404.0951437 400.51347134 401.44492558 400.52185535 398.79465199 C400.53142785 396.90290071 400.54143754 395.01115161 400.55185413 393.11940479 C400.57897745 387.96674959 400.59994667 382.81408515 400.61985612 377.6613977 C400.64167003 372.28282998 400.66908112 366.90429095 400.69591236 361.52574635 C400.74590159 351.33307993 400.79081722 341.14039764 400.83393472 330.94770008 C400.88325398 319.34691133 400.93819174 307.74615134 400.99361432 296.14539039 C401.10752996 272.27467954 401.21434802 248.40394112 401.31653309 224.53317738 C399.87988844 224.51611735 398.44318499 224.50396269 397.00647449 224.49387074 C396.20641987 224.48657444 395.40636524 224.47927814 394.58206654 224.47176075 C388.09318724 224.64766858 382.01328585 227.44618745 377.31653309 231.84567738 C369.67129865 240.42370358 370.17202812 250.83444716 370.07043934 261.64255238 C370.037497 264.03057682 370.00428542 266.41859756 369.97082996 268.80661488 C369.92352157 272.54324248 369.87906806 276.27985551 369.83972645 280.01657581 C369.79973601 283.64205599 369.74825932 287.26723946 369.69543934 290.89255238 C369.68702518 291.99500294 369.67861103 293.0974535 369.6699419 294.23331165 C369.47932255 306.34828173 368.26871932 320.41635324 359.31653309 329.53317738 C346.69188338 339.38407529 334.56398151 340.01709789 319.19153309 340.22067738 C317.45452905 340.25390674 315.71754873 340.28840144 313.98059559 340.324193 C309.75922459 340.41079555 305.53862932 340.47140099 301.31653309 340.53317738 C301.64653309 331.95317738 301.97653309 323.37317738 302.31653309 314.53317738 C306.02903309 314.16192738 306.02903309 314.16192738 309.81653309 313.78317738 C317.43100862 312.88771751 323.40923266 311.89952524 328.69153309 305.78317738 C332.45864727 298.24894902 332.61931659 290.99441916 332.66028309 282.72848988 C332.68221729 281.04975285 332.68221729 281.04975285 332.70459461 279.33710194 C332.75086071 275.7774963 332.78518438 272.2179437 332.81653309 268.65817738 C332.85791523 263.97308279 332.91167548 259.28836417 332.97278309 254.60348988 C332.97806019 253.54276264 332.98333729 252.48203541 332.9887743 251.38916492 C333.13175477 240.5757838 334.31553352 230.36767687 341.56653309 221.90817738 C347.16246239 217.07532934 352.35721771 213.14292064 359.31653309 210.53317738 C357.0246028 209.00522385 355.09925992 207.95302044 352.62903309 206.84567738 C343.25860994 202.11748221 337.85589719 195.44094748 334.31653309 185.53317738 C333.2519165 178.9249068 333.1514268 172.41219819 333.10559559 165.72848988 C333.07753238 163.4303056 333.04886796 161.13212861 333.01965809 158.83395863 C332.97843689 155.24427932 332.94150784 151.65473677 332.9151659 148.06491566 C332.88741582 144.57749601 332.841557 141.09067529 332.79309559 137.60348988 C332.78821629 136.01239902 332.78821629 136.01239902 332.78323841 134.38916492 C332.64064547 125.65701577 331.5820154 116.54372824 325.30481434 109.93942738 C318.29371148 104.98069058 309.49141166 105.53317738 301.31653309 105.53317738 C301.64653309 96.95317738 301.97653309 88.37317738 302.31653309 79.53317738 C306.95782022 79.46375092 311.59725667 79.40419201 316.23865223 79.36838245 C317.81260806 79.3534322 319.38652324 79.33306444 320.96033192 79.30685902 C333.17411257 79.10879771 344.68921959 79.71565551 355.31653309 86.53317738 C355.84247059 87.06942738 356.36840809 87.60567738 356.91028309 88.15817738 C358.2270745 89.76621659 358.2270745 89.76621659 360.31653309 89.53317738 C360.98319976 90.86651071 361.64986642 92.19984404 362.31653309 93.53317738 C362.71872059 94.31692738 363.12090809 95.10067738 363.53528309 95.90817738 C363.95809559 96.77442738 364.38090809 97.64067738 364.81653309 98.53317738 C365.23934559 99.37880238 365.66215809 100.22442738 366.09778309 101.09567738 C369.33728834 110.23274346 369.61474837 119.81706671 369.66028309 129.41989613 C369.67490589 130.60235416 369.68952869 131.7848122 369.70459461 133.0031023 C369.76623675 138.00691961 369.80641293 143.01085117 369.84827137 148.01486683 C369.88215016 151.69166976 369.92720507 155.36822255 369.97278309 159.04489613 C369.98069874 160.72333858 369.98069874 160.72333858 369.9887743 162.43568897 C370.12686368 173.36532844 371.34927105 180.76041338 378.62903309 189.22067738 C384.99217049 194.69593514 392.23242838 195.40485406 400.31653309 196.53317738 C401.81779257 193.53065841 401.45000291 190.447774 401.43678761 187.15546131 C401.43764203 186.38604462 401.43849645 185.61662792 401.43937677 184.82389557 C401.44103086 182.23201179 401.43551136 179.64019197 401.43005848 177.04831409 C401.42977657 175.19582591 401.42993442 173.34333761 401.43050098 171.49084949 C401.4307888 166.44979666 401.42489465 161.40876745 401.41792703 156.36772013 C401.41169083 151.10395489 401.41108948 145.84018915 401.40990162 140.57642078 C401.40678909 130.60334575 401.39857676 120.63028164 401.38855213 110.65721142 C401.37738856 99.30550825 401.37187993 87.95380457 401.36685669 76.60209727 C401.35639408 53.24578458 401.33879615 29.88948159 401.31653309 6.53317738 C396.92402086 5.68965909 392.77566475 5.40712852 388.30564976 5.40454292 C387.62059966 5.40278989 386.93554957 5.40103685 386.22974038 5.39923069 C383.93546979 5.39458073 381.64126284 5.39703358 379.34698963 5.39946461 C377.68506641 5.39759615 376.02314363 5.39529531 374.36122155 5.39259928 C369.79520118 5.3864796 365.22919912 5.38661507 360.66317558 5.38779366 C355.73885853 5.38799761 350.81454736 5.38247959 345.89023304 5.37773609 C336.2449433 5.36942914 326.59965967 5.36668127 316.95436665 5.36612371 C309.11890353 5.36564878 301.28344242 5.36359517 293.44797993 5.36042309 C271.24787271 5.35161807 249.04777032 5.34700373 226.84766135 5.34775356 C225.05237981 5.3478135 225.05237981 5.3478135 223.22082996 5.34787464 C222.02252046 5.34791552 220.82421095 5.3479564 219.58958903 5.34799852 C200.14646825 5.34840543 180.7033668 5.33882419 161.26025161 5.32473627 C141.31081171 5.31039508 121.36138124 5.30346477 101.41193604 5.30433005 C90.2057366 5.3046627 78.99955743 5.30188578 67.79336262 5.291152 C58.25763292 5.28207687 48.72193272 5.27984718 39.18620059 5.28666142 C34.31714979 5.28994121 29.44815566 5.28993107 24.57911015 5.28130817 C20.12832607 5.27350664 15.67764421 5.27480877 11.22686282 5.28359231 C9.6105969 5.28514137 7.9943236 5.28325897 6.37806639 5.27773223 C4.19326828 5.27075188 2.00883678 5.27590199 -0.17594814 5.28428841 C-1.39311685 5.28407104 -2.61028555 5.28385367 -3.86433816 5.28362972 C-6.8194987 5.24120668 -6.8194987 5.24120668 -8.68346691 7.53317738 Z " fill="#EB4444" transform="translate(22.683466911315918,8.466822624206543)"/>
<path d="M0 0 C1.29711662 -0.00856522 1.29711662 -0.00856522 2.62043762 -0.01730347 C4.03940842 -0.01898026 4.03940842 -0.01898026 5.48704529 -0.02069092 C6.48579178 -0.02565582 7.48453827 -0.03062073 8.5135498 -0.03573608 C11.8256041 -0.05036788 15.13761043 -0.05716297 18.44969177 -0.06268311 C20.7531535 -0.06843564 23.05661521 -0.07419336 25.3600769 -0.07995605 C30.19634728 -0.09047025 35.03260102 -0.09630955 39.86888123 -0.09979248 C46.05023769 -0.10526477 52.2313725 -0.12926409 58.41265965 -0.15776443 C63.17491281 -0.17644215 67.93711326 -0.18159925 72.69939995 -0.18312836 C74.97704715 -0.18614602 77.25469363 -0.19414446 79.53230476 -0.20731354 C82.72962596 -0.224474 85.92641478 -0.22246879 89.12376404 -0.21600342 C90.05557495 -0.2252182 90.98738586 -0.23443298 91.94743347 -0.243927 C105.21870185 -0.16036439 116.18039146 5.26824209 125.87937927 14.16387939 C136.60959416 25.45179775 141.07239579 38.31188909 141.05906677 53.59356689 C141.0633519 54.68957214 141.06763702 55.78557739 141.072052 56.91479492 C141.07777888 59.22779655 141.07830771 61.54081617 141.07395935 63.8538208 C141.07080831 67.36504411 141.09424927 70.87541685 141.11961365 74.38653564 C141.12188791 76.64304501 141.12258955 78.89955662 141.12156677 81.15606689 C141.13077652 82.19289612 141.13998627 83.22972534 141.1494751 84.29797363 C141.05760913 99.0116793 135.92510916 110.34242394 125.94187927 121.04278564 C113.70480909 132.79825378 99.40669642 136.23789153 82.94578552 136.34576416 C81.99852097 136.35566376 81.05125641 136.36556335 80.07528687 136.37576294 C76.96964446 136.40714482 73.86398681 136.43204242 70.75828552 136.45684814 C68.59495159 136.47743784 66.43162149 136.49843482 64.26829529 136.51982117 C58.59337996 136.57483372 52.91842959 136.62433425 47.24345398 136.67266846 C41.44498094 136.7230361 35.64655836 136.77864226 29.84812927 136.83380127 C18.4848912 136.94112798 7.12160919 137.04262885 -4.24171448 137.14044189 C-5.36867211 140.5213148 -5.38397013 143.15154049 -5.41749573 146.71466064 C-5.44134338 148.02241455 -5.46519104 149.33016846 -5.48976135 150.67755127 C-5.52470545 152.74658409 -5.55413028 154.81504791 -5.56764221 156.88433838 C-5.69748031 173.53757245 -5.69748031 173.53757245 -12.05812073 179.98028564 C-12.63433167 180.34251221 -13.2105426 180.70473877 -13.80421448 181.07794189 C-14.67239807 181.64835205 -14.67239807 181.64835205 -15.55812073 182.23028564 C-19.02170096 184.10270837 -21.89090757 184.26882865 -25.74952698 184.27325439 C-26.81815979 184.27454346 -27.8867926 184.27583252 -28.98780823 184.27716064 C-30.10284729 184.27329346 -31.21788635 184.26942627 -32.36671448 184.26544189 C-33.48948792 184.26930908 -34.61226135 184.27317627 -35.76905823 184.27716064 C-37.36814026 184.27522705 -37.36814026 184.27522705 -38.99952698 184.27325439 C-39.98066467 184.27212646 -40.96180237 184.27099854 -41.97267151 184.26983643 C-44.24171448 184.14044189 -44.24171448 184.14044189 -45.24171448 183.14044189 C-45.56036037 177.15958894 -45.598801 171.17629378 -45.64674377 165.18780518 C-45.66824016 163.17037755 -45.7022426 161.15304105 -45.74928284 159.13604736 C-45.81666976 156.22042363 -45.84381379 153.30673724 -45.86280823 150.39044189 C-45.89063889 149.49945801 -45.91846954 148.60847412 -45.94714355 147.69049072 C-45.92473714 140.76963353 -43.70827343 136.38956454 -39.24171448 131.14044189 C-33.08024847 126.21126909 -24.71291043 126.88283184 -17.16749573 126.62286377 C-12.73624132 126.58267351 -12.73624132 126.58267351 -9.24171448 124.14044189 C-8.92094237 120.8867092 -8.92094237 120.8867092 -8.99171448 117.20294189 C-8.98655823 115.95641846 -8.98140198 114.70989502 -8.97608948 113.42559814 C-8.98544093 109.99852741 -8.98544093 109.99852741 -11.24171448 107.14044189 C-14.0076302 106.80436826 -16.594006 106.62745455 -19.36671448 106.57794189 C-28.27624893 106.3669266 -35.73911896 105.79426057 -42.24171448 99.14044189 C-45.88865395 93.62797975 -45.69364438 88.45712444 -45.67530823 82.07403564 C-45.68055008 81.00355484 -45.68579193 79.93307404 -45.69119263 78.83015442 C-45.69760477 76.56664901 -45.69628633 74.30311025 -45.6877594 72.03961182 C-45.67930254 68.61361572 -45.70793792 65.1893181 -45.73976135 61.76348877 C-45.78446881 48.2007833 -45.72517716 35.75275125 -37.74171448 24.14044189 C-37.17452698 23.29481689 -36.60733948 22.44919189 -36.02296448 21.57794189 C-27.95407616 10.53630525 -14.353411 0.05683945 0 0 Z M-4.58546448 45.23419189 C-7.335266 51.47544264 -6.83510944 58.56351897 -6.76319885 65.25811768 C-6.7417609 67.63529482 -6.76305583 70.00945081 -6.78858948 72.38653564 C-6.85025827 84.59006162 -6.85025827 84.59006162 -0.65429688 94.80854797 C2.96051983 96.8041492 6.55338611 96.56611552 10.57835388 96.54449463 C11.46823502 96.55135788 12.35811615 96.55822113 13.27496338 96.56529236 C16.21618105 96.58359166 19.15686689 96.57971833 22.09812927 96.57403564 C24.14309869 96.57859601 26.18806658 96.58390114 28.23303223 96.58992004 C32.51942673 96.59885736 36.80563498 96.596421 41.09202576 96.58648682 C46.58457494 96.57499762 52.07648118 96.59520494 57.56894588 96.62440395 C61.79230838 96.64275186 66.01551642 96.64247627 70.23890877 96.63676643 C72.26390548 96.63661304 74.28891254 96.64267223 76.31387138 96.65505791 C79.14593178 96.66993897 81.97679951 96.65931194 84.80882263 96.64215088 C85.64483002 96.65181885 86.4808374 96.66148682 87.34217834 96.67144775 C91.30043405 96.62123325 93.28201164 96.44115536 96.70603943 94.27926636 C101.49833124 89.28480152 102.21788447 84.40740066 102.19187927 77.70684814 C102.19712112 76.91068588 102.20236298 76.11452362 102.20776367 75.29423523 C102.21416043 73.6175757 102.21287738 71.94087114 102.20433044 70.26422119 C102.19582134 67.71367654 102.22461012 65.16537508 102.2563324 62.61505127 C102.25794482 60.97898423 102.25736609 59.34291326 102.25437927 57.70684814 C102.26561325 56.95246964 102.27684723 56.19809113 102.28842163 55.42085266 C102.21663772 49.90466534 101.07522145 46.60091057 97.75828552 42.14044189 C92.81347413 38.96523235 88.77193485 38.7087169 83.09422302 38.7522583 C82.24467041 38.74700134 81.3951178 38.74174438 80.51982117 38.73632812 C77.72411978 38.7231727 74.92899225 38.73185036 72.13328552 38.74200439 C70.18325186 38.73998238 68.23321894 38.73706987 66.28318787 38.73330688 C62.20124596 38.72888957 58.11950133 38.73529556 54.0375824 38.74932861 C48.81207068 38.76642008 43.58702126 38.75657573 38.36152649 38.73861122 C34.33629387 38.72775742 30.3111704 38.73122707 26.28593445 38.7389946 C24.35946091 38.74099219 22.43297737 38.73855287 20.5065155 38.73155594 C17.81152698 38.72391521 15.11728139 38.73558229 12.42234802 38.7522583 C11.63048096 38.74618561 10.83861389 38.74011292 10.02275085 38.7338562 C3.71093248 38.80600894 -0.61036773 39.98706419 -4.58546448 45.23419189 Z " fill="#EC4444" transform="translate(170.24171447753906,154.85955810546875)"/>
<path d="M0 0 C0.72716217 -0.00570007 1.45432434 -0.01140015 2.20352173 -0.01727295 C3.75203999 -0.02674603 5.30057862 -0.03326604 6.84912109 -0.03710938 C9.182346 -0.04669338 11.51464303 -0.07764007 13.84765625 -0.109375 C26.80867777 -0.20171917 37.34550372 1.93746956 48.4765625 8.828125 C60.1588076 20.5103701 60.9537531 35.24117334 61.09765625 50.796875 C61.13058041 53.2330767 61.16379229 55.66927453 61.19726562 58.10546875 C61.24468466 61.9102934 61.28918583 65.71510077 61.32836914 69.52001953 C61.36823311 73.2166268 61.41972045 76.91293496 61.47265625 80.609375 C61.4810704 81.7377478 61.48948456 82.86612061 61.49815369 84.02868652 C61.66309627 94.64769521 62.75018814 102.04629387 69.6640625 110.390625 C76.31419913 115.9007382 83.16818833 115.86722128 91.8515625 117.203125 C91.5215625 126.773125 91.1915625 136.343125 90.8515625 146.203125 C85.4065625 147.193125 85.4065625 147.193125 79.8515625 148.203125 C72.68745797 150.09950561 69.13620035 153.16892669 64.8515625 159.203125 C60.97279637 166.43173461 61.68038437 175.34217156 61.60546875 183.3125 C61.57252642 185.70052445 61.53931484 188.08854519 61.50585938 190.4765625 C61.45855098 194.21319011 61.41409747 197.94980313 61.37475586 201.68652344 C61.33476542 205.31200361 61.28328873 208.93718708 61.23046875 212.5625 C61.2220546 213.66495056 61.21364044 214.76740112 61.20497131 215.90325928 C60.99909331 228.98800539 59.42022953 242.47886989 49.8515625 252.203125 C37.1456626 262.19204002 25.20287167 262.62506985 9.7265625 262.390625 C7.98959494 262.37555053 6.25261472 262.36186702 4.515625 262.34960938 C0.29395398 262.31682324 -3.92709963 262.26519414 -8.1484375 262.203125 C-8.17730287 257.89063891 -8.19519005 253.57817738 -8.2109375 249.265625 C-8.21931641 248.03392578 -8.22769531 246.80222656 -8.23632812 245.53320312 C-8.23955078 244.36337891 -8.24277344 243.19355469 -8.24609375 241.98828125 C-8.25133057 240.90426025 -8.25656738 239.82023926 -8.26196289 238.70336914 C-8.1484375 236.203125 -8.1484375 236.203125 -7.1484375 235.203125 C-3.87365799 234.78763971 -0.60110619 234.43394593 2.68554688 234.12890625 C7.33943703 233.62183419 10.68987439 232.48674996 14.8515625 230.203125 C15.5115625 230.203125 16.1715625 230.203125 16.8515625 230.203125 C21.27787518 221.75161617 22.29193198 213.64256658 22.29296875 204.203125 C22.30617661 203.08679688 22.31938446 201.97046875 22.33299255 200.8203125 C22.37358481 197.28122419 22.39546782 193.74239203 22.4140625 190.203125 C22.4379694 186.66393725 22.4662729 183.1249863 22.50584412 179.5859375 C22.52990705 177.39331302 22.54500348 175.2005645 22.54945374 173.0078125 C22.66787924 161.28866295 24.35459073 149.92370129 32.8515625 141.203125 C35.32697883 139.34449301 37.84697776 137.58121411 40.4140625 135.8515625 C42.61413735 134.36369137 44.74142696 132.8150341 46.8515625 131.203125 C45.15 130.460625 45.15 130.460625 43.4140625 129.703125 C33.67060314 124.73654749 27.47214071 117.54763417 23.8515625 107.203125 C22.79033731 100.59403479 22.68645924 94.08258675 22.640625 87.3984375 C22.61256179 85.10025323 22.58389737 82.80207623 22.5546875 80.50390625 C22.5134663 76.91422695 22.47653725 73.3246844 22.45019531 69.73486328 C22.42244523 66.24744363 22.37658641 62.76062292 22.328125 59.2734375 C22.32487213 58.21271027 22.32161926 57.15198303 22.31826782 56.05911255 C22.18567091 47.93910312 20.93066466 40.89185465 16.9140625 33.765625 C10.04590494 28.01879929 0.46240858 27.97853966 -8.1484375 27.203125 C-8.17730287 22.89063891 -8.19519005 18.57817738 -8.2109375 14.265625 C-8.21931641 13.03392578 -8.22769531 11.80222656 -8.23632812 10.53320312 C-8.23955078 9.36337891 -8.24277344 8.19355469 -8.24609375 6.98828125 C-8.25133057 5.90426025 -8.25656738 4.82023926 -8.26196289 3.70336914 C-8.03212679 -1.35846211 -4.08089286 0.02463398 0 0 Z " fill="#ED4443" transform="translate(332.1484375,86.796875)"/>
<path d="M0 0 C7.12231315 0.84553511 14.28348871 0.65353722 21.44356251 0.62651539 C23.08602438 0.62408489 24.72848699 0.62211093 26.37094992 0.62055224 C29.93184189 0.61618933 33.49270752 0.60861024 37.05358791 0.59854984 C42.8478859 0.58218545 48.6421837 0.57279022 54.43649769 0.56419849 C62.84721336 0.55109123 71.25791763 0.53475289 79.66862392 0.51664639 C92.95698858 0.48842639 106.24535631 0.47177351 119.53374195 0.45717335 C124.08109096 0.45204944 128.62843992 0.44687543 133.17578888 0.4417038 C134.31206079 0.44041776 135.4483327 0.43913173 136.6190371 0.43780673 C149.54351379 0.42308308 162.46798789 0.40659801 175.39246082 0.38889027 C176.57359613 0.38727552 177.75473144 0.38566078 178.97165873 0.38399711 C198.13842228 0.35742648 217.30515101 0.31966245 236.47188846 0.2787017 C256.14796148 0.23700961 275.82401603 0.21055361 295.50012892 0.19749373 C307.63946602 0.18888593 319.77865416 0.16780727 331.91793867 0.130865 C340.2278199 0.1066421 348.5376374 0.09689167 356.84755347 0.09868506 C361.6460654 0.09926446 366.44433691 0.09320991 371.2427969 0.06981373 C375.6313524 0.04854749 380.01951881 0.04554962 384.40810641 0.05736908 C385.99942996 0.05836969 387.59077482 0.05252876 389.18204389 0.03932343 C391.33830846 0.02240204 393.49313145 0.02993547 395.64938545 0.04377937 C396.84897969 0.04171842 398.04857392 0.03965747 399.28451949 0.03753406 C402.31653309 0.53317738 402.31653309 0.53317738 404.70176953 2.12960166 C406.88802166 5.38383817 406.81787233 7.56908585 406.81989765 11.47978687 C406.82571141 12.18219057 406.83152518 12.88459427 406.83751512 13.60828292 C406.85217245 15.97397359 406.8382041 18.33863598 406.82446766 20.70431995 C406.82907433 22.41259417 406.83542567 24.12086443 406.84337664 25.82912636 C406.86012527 30.53272533 406.85179856 35.23600105 406.83943176 39.93960142 C406.83040616 45.00852562 406.84433859 50.07739302 406.85535145 55.14630604 C406.87316793 65.0800035 406.86928277 75.0135803 406.85770088 84.94728255 C406.84867913 93.01829283 406.84743711 101.08926922 406.85179615 109.16028309 C406.85240908 110.30758579 406.85302201 111.45488849 406.85365352 112.63695794 C406.85493238 114.96744689 406.85622923 117.29793583 406.85754389 119.62842476 C406.86895885 141.49794901 406.8558216 163.36740626 406.83434242 185.23691952 C406.81647062 204.01506768 406.81957447 222.79311694 406.83801746 241.57126331 C406.85940799 263.36081255 406.86786013 285.15030303 406.85556841 306.9398613 C406.85429417 309.26193141 406.85303669 311.58400153 406.85179615 313.90607166 C406.8508705 315.61996994 406.8508705 315.61996994 406.84992614 317.36849242 C406.84646779 325.4328113 406.85231204 333.49709301 406.86171436 341.56140614 C406.87291554 351.38482437 406.86993397 361.2081147 406.84859139 371.03151822 C406.83805561 376.04667309 406.83400206 381.06161447 406.847188 386.07676792 C406.85906554 390.66354918 406.85262641 395.2499181 406.83127779 399.8366617 C406.82679196 401.50012438 406.8291221 403.16362156 406.83878094 404.82706225 C406.85086796 407.08073272 406.83855055 409.33297329 406.81989765 411.58656788 C406.81924824 412.84051444 406.81859883 414.094461 406.81792974 415.38640594 C406.31653309 418.53317738 406.31653309 418.53317738 404.71745831 420.93622935 C401.47040714 423.0959684 399.28901506 423.03231016 395.39836502 423.03095531 C394.69903847 423.03616988 393.99971193 423.04138445 393.27919367 423.04675704 C390.92396253 423.05940072 388.56978923 423.04340644 386.21458912 423.02765369 C384.5138532 423.03082881 382.81311978 423.03575495 381.11239344 423.04228652 C376.42965193 423.055144 371.74725492 423.04295413 367.06453598 423.02675796 C362.0181372 423.01362675 356.97177767 423.02349589 351.92537403 423.03052235 C342.03611709 423.04061742 332.14699366 423.02930943 322.25775331 423.01082174 C310.75009139 422.99007965 299.24245855 422.99019343 287.73478145 422.9911669 C267.20788591 422.99216872 246.68105264 422.97382932 226.15417957 422.94479847 C206.21894668 422.91661881 186.2837686 422.90245704 166.34851551 422.90378284 C165.12062044 422.90386276 163.89272536 422.90394267 162.62762135 422.904025 C160.78901693 422.90414607 160.78901693 422.90414607 158.91326898 422.90426958 C136.2416032 422.90564809 113.56996079 422.89387633 90.89830257 422.87596314 C82.8695951 422.86992188 74.84089191 422.86780301 66.81218243 422.86689854 C57.03377974 422.86553642 47.25541642 422.85663721 37.47703045 422.83823292 C32.48433528 422.82897799 27.49169058 422.82291289 22.49898624 422.82542133 C17.93395053 422.82760375 13.36902665 422.82062185 8.80401427 422.80612428 C7.14729864 422.80248358 5.49057151 422.8022506 3.83385538 422.80565886 C1.5920557 422.80976214 -0.64937275 422.80170879 -2.89113998 422.79044628 C-4.13939074 422.78903743 -5.3876415 422.78762858 -6.67371804 422.78617704 C-9.68346691 422.53317738 -9.68346691 422.53317738 -12.68346691 420.53317738 C-13.06822777 417.52368832 -13.06822777 417.52368832 -13.08219433 413.56323719 C-13.08884116 412.83434743 -13.09548798 412.10545766 -13.10233623 411.35448033 C-13.12111018 408.88802832 -13.1183485 406.42205644 -13.11583996 403.95554066 C-13.12486535 402.18070929 -13.13519447 400.40588415 -13.14672375 398.63106728 C-13.17460856 393.74029104 -13.18364144 388.84963134 -13.18957782 383.95878577 C-13.19906499 378.70534573 -13.22540451 373.45198711 -13.24958324 368.19859791 C-13.29405793 357.92964643 -13.32216058 347.66071025 -13.34490663 337.39169019 C-13.36383081 329.06542087 -13.38996416 320.73920127 -13.42101574 312.41296864 C-13.42761662 310.64073174 -13.42761662 310.64073174 -13.43435085 308.83269209 C-13.44329433 306.43527896 -13.45224072 304.03786585 -13.46118999 301.64045274 C-13.64580132 251.44987449 -13.70734573 201.25922426 -13.70299816 151.06833363 C-13.70292381 149.92632401 -13.70284946 148.7843144 -13.70277286 147.60769844 C-13.70104767 124.52650146 -13.69148985 101.44534014 -13.65626335 78.36416817 C-13.64557237 71.29260527 -13.63795074 64.22104003 -13.63115221 57.14947242 C-13.62546635 51.5754491 -13.61528402 46.00145912 -13.60142404 40.42745042 C-13.59402909 37.05407622 -13.59073993 33.68070732 -13.58860934 30.30732608 C-13.58677298 28.76435941 -13.58320532 27.22139362 -13.57773149 25.67843556 C-13.57049664 23.5820336 -13.56947239 21.48571463 -13.56994152 19.38930225 C-13.5666106 17.64394829 -13.5666106 17.64394829 -13.56321239 15.86333466 C-13.6897034 12.3604729 -14.12841375 8.99194251 -14.68346691 5.53317738 C-10.93346691 2.53317738 -10.93346691 2.53317738 -8.68346691 2.53317738 C-8.68346691 1.87317738 -8.68346691 1.21317738 -8.68346691 0.53317738 C-5.51297082 -0.38728923 -3.30796379 -0.41923339 0 0 Z M-8.68346691 7.53317738 C-8.87893741 9.99576762 -8.94838603 12.34562811 -8.93070507 14.80923939 C-8.93312108 15.57095821 -8.93553709 16.33267704 -8.93802631 17.11747825 C-8.94370263 19.69460636 -8.93496896 22.27148974 -8.92638683 24.84860706 C-8.92743677 26.70195742 -8.92935122 28.55530745 -8.93206215 30.40865612 C-8.93689661 35.51176639 -8.92906257 40.61479126 -8.91907263 45.71789122 C-8.91039011 51.18934952 -8.91285882 56.66080441 -8.91378307 62.13226795 C-8.91360772 72.80382155 -8.90205452 83.47533464 -8.88630152 94.1468755 C-8.87372356 102.78253908 -8.86534901 111.4181975 -8.85970592 120.05386829 C-8.81284206 189.66676545 -8.62316859 259.27911051 -8.27685452 328.89116383 C-8.25604727 333.08381856 -8.2358775 337.27647559 -8.21630001 341.46913624 C-8.1607634 353.36269738 -8.10033384 365.2562098 -8.03071499 377.1496973 C-8.00985054 380.73551296 -7.99113695 384.32132951 -7.97434139 387.90716648 C-7.95498819 392.00611082 -7.93094948 396.10499893 -7.90296423 400.20389318 C-7.89360164 401.68981185 -7.88593137 403.17574226 -7.88005102 404.66167879 C-7.87184164 406.66563208 -7.85697491 408.66955491 -7.8416853 410.67346668 C-7.83523274 411.78922895 -7.82878019 412.90499123 -7.82213211 414.05456448 C-7.96286531 416.47594755 -7.96286531 416.47594755 -6.68346691 417.53317738 C-4.5316959 417.63210983 -2.37660404 417.65873475 -0.22255993 417.65901852 C0.46377403 417.66047196 1.150108 417.6619254 1.85723996 417.66342288 C4.18597774 417.66710872 6.51465112 417.6635846 8.84338856 417.66016102 C10.51820821 417.66131182 12.19302762 417.66289906 13.86784649 417.66488826 C18.49270228 417.66908724 23.1175376 417.66698835 27.74239349 417.66390204 C32.72131144 417.66165046 37.70022572 417.66512634 42.67914295 417.66788197 C52.44175918 417.67234126 62.20436774 417.67136249 71.96698427 417.66846932 C79.89744569 417.66621591 87.82790494 417.6659025 95.75836658 417.66699314 C96.88473904 417.66714637 98.01111149 417.66729961 99.17161644 417.66745748 C101.45943117 417.66777719 103.74724591 417.6681014 106.03506064 417.66843008 C127.5153117 417.67128533 148.9955585 417.66799713 170.47580886 417.66262971 C188.92857844 417.65816163 207.38134174 417.65893755 225.83411121 417.66354847 C247.23465357 417.66889343 268.6351922 417.67101064 290.03573513 417.66793621 C292.31538995 417.66761764 294.59504477 417.66730327 296.87469959 417.66699314 C298.5573892 417.66676173 298.5573892 417.66676173 300.27407253 417.66652564 C308.19999047 417.66566025 316.12590604 417.66712384 324.05182362 417.66947269 C333.70371215 417.67227002 343.35559255 417.67153386 353.00748014 417.66619195 C357.93711419 417.66355402 362.86673464 417.66255141 367.7963686 417.6658411 C372.30155352 417.6688022 376.80671215 417.6672144 381.31189466 417.66186355 C382.94915276 417.66073856 384.58641305 417.66133233 386.22366977 417.66373934 C388.43435432 417.66674219 390.64494653 417.66370004 392.85562611 417.65901852 C394.70424087 417.65877499 394.70424087 417.65877499 396.59020138 417.65852654 C399.23034592 417.84399257 399.23034592 417.84399257 400.31653309 416.53317738 C400.42674283 414.14107388 400.47149536 411.77724822 400.47475147 409.38409901 C400.47968963 408.62394141 400.48462778 407.86378382 400.48971558 407.08059114 C400.50520194 404.50277714 400.51349048 401.9249885 400.52185535 399.34714222 C400.53143935 397.49554034 400.54144702 395.64394062 400.55184555 393.79234314 C400.57915653 388.68914342 400.60008035 383.58593441 400.61984348 378.48270059 C400.64196518 373.0120381 400.66943547 367.5414019 400.69604969 362.07075977 C400.74691565 351.39712249 400.7917164 340.72346747 400.83418524 330.04979378 C400.86861196 321.4117896 400.90528404 312.77379747 400.94321156 304.13580799 C401.37656759 204.93487139 401.43339513 105.73484817 401.31653309 6.53317738 C396.92402086 5.68965909 392.77566475 5.40712852 388.30564976 5.40454292 C387.62059966 5.40278989 386.93554957 5.40103685 386.22974038 5.39923069 C383.93546979 5.39458073 381.64126284 5.39703358 379.34698963 5.39946461 C377.68506641 5.39759615 376.02314363 5.39529531 374.36122155 5.39259928 C369.79520118 5.3864796 365.22919912 5.38661507 360.66317558 5.38779366 C355.73885853 5.38799761 350.81454736 5.38247959 345.89023304 5.37773609 C336.2449433 5.36942914 326.59965967 5.36668127 316.95436665 5.36612371 C309.11890353 5.36564878 301.28344242 5.36359517 293.44797993 5.36042309 C271.24787271 5.35161807 249.04777032 5.34700373 226.84766135 5.34775356 C225.05237981 5.3478135 225.05237981 5.3478135 223.22082996 5.34787464 C222.02252046 5.34791552 220.82421095 5.3479564 219.58958903 5.34799852 C200.14646825 5.34840543 180.7033668 5.33882419 161.26025161 5.32473627 C141.31081171 5.31039508 121.36138124 5.30346477 101.41193604 5.30433005 C90.2057366 5.3046627 78.99955743 5.30188578 67.79336262 5.291152 C58.25763292 5.28207687 48.72193272 5.27984718 39.18620059 5.28666142 C34.31714979 5.28994121 29.44815566 5.28993107 24.57911015 5.28130817 C20.12832607 5.27350664 15.67764421 5.27480877 11.22686282 5.28359231 C9.6105969 5.28514137 7.9943236 5.28325897 6.37806639 5.27773223 C4.19326828 5.27075188 2.00883678 5.27590199 -0.17594814 5.28428841 C-1.39311685 5.28407104 -2.61028555 5.28385367 -3.86433816 5.28362972 C-6.8194987 5.24120668 -6.8194987 5.24120668 -8.68346691 7.53317738 Z " fill="#EEAFAF" transform="translate(22.683466911315918,8.466822624206543)"/>
<path d="M0 0 C7.11773864 0.84529211 14.27541526 0.69122543 21.43182468 0.69545078 C23.07301434 0.70002175 24.71420285 0.70502255 26.35539001 0.71041435 C30.85007657 0.72394395 35.34475561 0.73139875 39.83945715 0.73784101 C44.69211398 0.7458678 49.54475525 0.75955769 54.39740086 0.77255344 C62.79992846 0.79428393 71.20245767 0.81244092 79.60499859 0.82815838 C91.75360483 0.85088827 103.90219383 0.87902675 116.05078541 0.90847766 C135.76193293 0.95611536 155.47308751 0.99938988 175.18425083 1.03991795 C194.32976423 1.07929233 213.47527136 1.12072321 232.62077427 1.16491795 C234.39150288 1.16900435 234.39150288 1.16900435 236.19800378 1.17317332 C242.12026036 1.18685312 248.04251685 1.20057332 253.9647733 1.21431363 C303.08178332 1.32821835 352.19880693 1.43504096 401.31584263 1.5372324 C401.64584263 2.1972324 401.97584263 2.8572324 402.31584263 3.5372324 C382.0258926 7.41616995 360.16234768 5.70129796 339.56617892 5.72318196 C334.90869022 5.72921078 330.25121493 5.74085701 325.59373569 5.75181675 C317.54939414 5.77004116 309.50505219 5.78493513 301.46070004 5.79759312 C289.82922554 5.81598796 278.19777047 5.8406465 266.56631152 5.86696702 C247.6876621 5.90961205 228.80900738 5.94876932 209.93034458 5.98498631 C208.8036237 5.98714911 207.67690281 5.98931191 206.51603887 5.99154025 C196.21472866 6.01128184 185.91341801 6.03079034 175.61210728 6.05025578 C168.72925397 6.06326714 161.84640078 6.07634072 154.96354771 6.08947849 C153.83184771 6.09163736 152.70014772 6.09379623 151.53415378 6.09602052 C132.69500766 6.13207783 113.85587172 6.1720129 95.01673967 6.21478128 C83.40403696 6.24095752 71.79133738 6.26361145 60.1786193 6.28176486 C52.24219239 6.29439365 44.30577763 6.31050505 36.36936321 6.32941401 C31.78590788 6.3402071 27.20246438 6.34931312 22.61899853 6.35410976 C18.43106589 6.35851776 14.24316889 6.36742975 10.05525319 6.38005298 C8.53369909 6.38381244 7.01213966 6.38585114 5.49058094 6.38607317 C3.43626631 6.3866083 1.38195649 6.39377516 -0.67234421 6.40136051 C-1.81742646 6.40347648 -2.9625087 6.40559245 -4.14229041 6.40777254 C-6.61960435 6.24927125 -6.61960435 6.24927125 -7.68415737 7.5372324 C-7.79419009 9.92750261 -7.83911323 12.28950581 -7.84237576 14.68080235 C-7.84731373 15.43711396 -7.85225171 16.19342557 -7.85733932 16.97265571 C-7.87279016 19.52616136 -7.88109534 22.07964173 -7.88947964 24.63317966 C-7.89905221 26.45596638 -7.90906192 28.27875085 -7.91947842 30.10153294 C-7.94660084 35.06617709 -7.96757054 40.03083082 -7.9874804 44.99550843 C-8.00929486 50.17788628 -8.03670569 55.36023437 -8.06353664 60.54258823 C-8.11352512 70.36338641 -8.15844103 80.18420105 -8.20155901 90.00503153 C-8.2508789 101.1826126 -8.30581643 112.36016381 -8.3612386 123.53771603 C-8.4751531 146.53752698 -8.58197141 169.53736656 -8.68415737 192.5372324 C-9.01415737 192.5372324 -9.34415737 192.5372324 -9.68415737 192.5372324 C-9.81883001 185.38783683 -9.94930001 178.2383752 -10.0753088 171.08882141 C-10.13402268 167.7638875 -10.19425339 164.43899984 -10.25691128 161.1141367 C-10.68018616 138.58122803 -10.68415737 116.08099867 -10.68415737 93.5372324 C-11.01415737 131.1572324 -11.34415737 168.7772324 -11.68415737 207.5372324 C-12.01415737 207.5372324 -12.34415737 207.5372324 -12.68415737 207.5372324 C-12.68838931 206.53870715 -12.69262125 205.5401819 -12.69698143 204.51139832 C-12.80017119 180.21603501 -12.90891921 155.92070144 -13.02349663 131.6253891 C-13.07877665 119.87636839 -13.13225007 108.12734464 -13.18147182 96.37829685 C-13.22437762 86.13793869 -13.27067171 75.89760242 -13.32103592 65.65727812 C-13.34758533 60.23504173 -13.37243707 54.81280953 -13.39323139 49.39054775 C-13.41286046 44.28609483 -13.4370228 39.18168336 -13.46464825 34.07726765 C-13.47398553 32.20481147 -13.48167264 30.33234621 -13.48757648 28.45987606 C-13.49589435 25.90052822 -13.51018648 23.34127947 -13.52593899 20.78196812 C-13.52691709 20.04362309 -13.5278952 19.30527806 -13.52890295 18.54455894 C-13.56397787 14.10320923 -13.96659088 9.90710384 -14.68415737 5.5372324 C-10.93415737 2.5372324 -10.93415737 2.5372324 -8.68415737 2.5372324 C-8.68415737 1.8772324 -8.68415737 1.2172324 -8.68415737 0.5372324 C-5.51538422 -0.382734 -3.30638233 -0.41531522 0 0 Z " fill="#ED9998" transform="translate(22.684157371520996,8.462767601013184)"/>
<path d="M0 0 C0.33 0 0.66 0 1 0 C0.99907821 0.88652819 0.99815641 1.77305637 0.99720669 2.68644905 C0.96711366 32.16596091 0.94837511 61.64547489 0.9375 91.125 C0.9370657 92.26788136 0.93663139 93.41076273 0.93618393 94.58827686 C0.90917167 167.68529874 1.08221379 240.77915576 1.5 313.875 C1.50597372 314.92261411 1.51194743 315.97022821 1.51810217 317.0495882 C1.66836752 343.36645784 1.82816924 369.68326229 2 396 C5.3 396 8.6 396 12 396 C12 396.33 12 396.66 12 397 C21.57 397.33 31.14 397.66 41 398 C41 398.66 41 399.32 41 400 C42.63195313 399.98259766 42.63195313 399.98259766 44.296875 399.96484375 C52.92270656 399.90188866 61.41125865 400.07327646 70 401 C70 401.33 70 401.66 70 402 C60.7945787 402.04630932 51.58919741 402.08186203 42.38368511 402.10362434 C38.10934527 402.11406835 33.83508504 402.12823877 29.56079102 402.15087891 C25.43703744 402.17258534 21.31336051 402.18456398 17.18955421 402.18975449 C15.61505743 402.1934542 14.04056491 402.2006787 12.46610069 402.21146011 C10.26335916 402.22594594 8.06093568 402.22797918 5.8581543 402.22705078 C4.60350876 402.231492 3.34886322 402.23593323 2.05619812 402.24050903 C-1 402 -1 402 -4 400 C-4.30873323 397.16866676 -4.41988845 394.55326804 -4.40545654 391.71788025 C-4.41280894 390.85116386 -4.42016133 389.98444748 -4.42773652 389.09146696 C-4.4488288 386.17016517 -4.44844174 383.24925324 -4.44824219 380.32788086 C-4.45888878 378.24055811 -4.47083643 376.15324166 -4.48399353 374.06593323 C-4.51595915 368.38434253 -4.52925632 362.70284271 -4.53904247 357.0211761 C-4.55211013 351.08785042 -4.58125174 345.15460333 -4.60845947 339.22132874 C-4.65181295 329.2568621 -4.68390627 319.29241064 -4.70849609 309.32788086 C-4.74016434 296.51938083 -4.79035759 283.71102356 -4.84641647 270.90260983 C-4.8943584 259.91401763 -4.93374149 248.9253972 -4.97177219 237.93676686 C-4.98440754 234.39321922 -4.9982391 230.8496777 -5.01222992 227.30613518 C-5.03363347 221.74863887 -5.04971631 216.19115153 -5.06158638 210.63362694 C-5.06671595 208.58770495 -5.07356357 206.54178648 -5.08220482 204.49587631 C-5.09362823 201.71561687 -5.09890311 198.93541506 -5.10247803 196.15513611 C-5.10723546 195.33453215 -5.11199289 194.51392819 -5.11689448 193.66845745 C-5.11420654 188.11420654 -5.11420654 188.11420654 -4 187 C-3.89220145 185.52027192 -3.85318144 184.03547028 -3.84178162 182.55186462 C-3.82709839 181.11098228 -3.82709839 181.11098228 -3.81211853 179.64099121 C-3.80636307 178.57860229 -3.8006076 177.51621338 -3.79467773 176.42163086 C-3.78477814 175.30957779 -3.77487854 174.19752472 -3.76467896 173.05177307 C-3.73295477 169.35615202 -3.70826353 165.66051809 -3.68359375 161.96484375 C-3.66303364 159.41036128 -3.64203744 156.85588229 -3.62062073 154.30140686 C-3.57096433 148.25241509 -3.52572441 142.2034057 -3.48259836 136.15436512 C-3.43326753 129.26931425 -3.37833405 122.38431169 -3.32291877 115.49930751 C-3.20902397 101.33291675 -3.10220134 87.16647961 -3 73 C-2.01 72.505 -2.01 72.505 -1 72 C-1 85.53 -1 99.06 -1 113 C-0.67 75.71 -0.34 38.42 0 0 Z " fill="#F3AEAE" transform="translate(14,29)"/>
<path d="M0 0 C126.72 0 253.44 0 384 0 C384 0.33 384 0.66 384 1 C380.7 1.33 377.4 1.66 374 2 C381.59 2.33 389.18 2.66 397 3 C397 3.33 397 3.66 397 4 C352.82883414 4.02291294 308.65766891 4.04052189 264.48649827 4.05106533 C259.26598256 4.05231596 254.04546686 4.05361029 248.82495117 4.05493164 C247.26605325 4.05532511 247.26605325 4.05532511 245.67566245 4.05572652 C228.87094319 4.06007211 212.06622737 4.06795355 195.26151014 4.0771528 C178.0050089 4.08652024 160.74850945 4.09206215 143.49200577 4.09408849 C132.85275663 4.0954573 122.21351722 4.09977307 111.57427108 4.10791647 C104.26826841 4.11322207 96.96227073 4.11479565 89.65626628 4.11350138 C85.44767481 4.11286394 81.23910027 4.11380769 77.03051186 4.11920547 C44.62245262 4.15881603 44.62245262 4.15881603 31 3 C31 2.34 31 1.68 31 1 C20.77 1 10.54 1 0 1 C0 0.67 0 0.34 0 0 Z " fill="#EE918E" transform="translate(24,426)"/>
<path d="M0 0 C0.33 0 0.66 0 1 0 C2.45300479 47.92784183 3.25254375 95.84746647 3.36334229 143.79787064 C3.37502272 147.63245927 3.39444227 151.46693835 3.41601562 155.30148315 C3.44912201 161.37066867 3.46181836 167.43955728 3.4583931 173.50882912 C3.46007677 175.76212883 3.46843575 178.01543436 3.48377609 180.26868248 C3.50325449 183.35865947 3.49783675 186.44760558 3.48583984 189.53759766 C3.49708389 190.4449211 3.50832794 191.35224455 3.51991272 192.28706264 C3.45858622 198.3644222 3.45858622 198.3644222 1.14151001 201.57577515 C-1.44137481 203.29353913 -2.95676654 203.33813705 -6 203 C-6 202.67 -6 202.34 -6 202 C-17.385 201.505 -17.385 201.505 -29 201 C-28.505 200.01 -28.505 200.01 -28 199 C-25.93359375 198.5859375 -25.93359375 198.5859375 -23.4375 198.375 C-22.19806641 198.26285156 -22.19806641 198.26285156 -20.93359375 198.1484375 C-20.29550781 198.09945312 -19.65742188 198.05046875 -19 198 C-19 197.67 -19 197.34 -19 197 C-14.05 197 -9.1 197 -4 197 C-3.67 133.97 -3.34 70.94 -3 6 C-2.67 6 -2.34 6 -2 6 C-1.34 4.02 -0.68 2.04 0 0 Z " fill="#F2B4B4" transform="translate(426,228)"/>
<path d="M0 0 C0.33 0 0.66 0 1 0 C1 71.94 1 143.88 1 218 C0.67 218 0.34 218 0 218 C-0.33 231.86 -0.66 245.72 -1 260 C-1.66 260 -2.32 260 -3 260 C-3.01030746 259.23436234 -3.02061493 258.46872467 -3.03123474 257.67988586 C-3.12931307 250.4557421 -3.23184195 243.23168157 -3.33933926 236.00767231 C-3.39444516 232.29396248 -3.44784496 228.58024461 -3.49731445 224.86645508 C-3.54514053 221.28079301 -3.59748903 217.6952226 -3.65294075 214.10967064 C-3.67328191 212.74340289 -3.69200819 211.37711009 -3.70907402 210.0107975 C-3.73330109 208.09348347 -3.76386213 206.17625266 -3.79467773 204.2590332 C-3.81022202 203.16871292 -3.8257663 202.07839264 -3.84178162 200.95503235 C-3.98940859 198.19781498 -4.41570499 195.69221685 -5 193 C-5.125 190.25 -5.125 190.25 -5 188 C-4.67 187.67 -4.34 187.34 -4 187 C-3.89220145 185.52027192 -3.85318144 184.03547028 -3.84178162 182.55186462 C-3.82709839 181.11098228 -3.82709839 181.11098228 -3.81211853 179.64099121 C-3.80636307 178.57860229 -3.8006076 177.51621338 -3.79467773 176.42163086 C-3.78477814 175.30957779 -3.77487854 174.19752472 -3.76467896 173.05177307 C-3.73295477 169.35615202 -3.70826353 165.66051809 -3.68359375 161.96484375 C-3.66303364 159.41036128 -3.64203744 156.85588229 -3.62062073 154.30140686 C-3.57096433 148.25241509 -3.52572441 142.2034057 -3.48259836 136.15436512 C-3.43326753 129.26931425 -3.37833405 122.38431169 -3.32291877 115.49930751 C-3.20902397 101.33291675 -3.10220134 87.16647961 -3 73 C-2.01 72.505 -2.01 72.505 -1 72 C-1 85.53 -1 99.06 -1 113 C-0.67 75.71 -0.34 38.42 0 0 Z " fill="#FCC0BF" transform="translate(14,29)"/>
<path d="M0 0 C0.33 0 0.66 0 1 0 C1 45.21 1 90.42 1 137 C0.67 137 0.34 137 0 137 C-0.66 108.95 -1.32 80.9 -2 52 C-2.33 116.68 -2.66 181.36 -3 248 C-3.33 248 -3.66 248 -4 248 C-4.22385427 219.51517337 -4.42482283 191.0302653 -4.59840012 162.54508591 C-4.67952758 149.3195058 -4.7681991 136.09405596 -4.87451172 122.86865234 C-4.9671336 111.34402656 -5.04572201 99.81940608 -5.10732102 88.29457116 C-5.14044385 82.18985531 -5.18068676 76.08537048 -5.2377243 69.98082733 C-5.29115445 64.23867211 -5.32586387 58.4967123 -5.34602928 52.75434685 C-5.35677602 50.6435292 -5.37444471 48.53273406 -5.39944649 46.42203712 C-5.43249098 43.54612914 -5.44092096 40.67117744 -5.4430542 37.79510498 C-5.45859651 36.95463867 -5.47413883 36.11417236 -5.49015212 35.24823737 C-5.46867594 31.55370784 -5.42681354 29.50909187 -3.00642776 26.6221199 C-2.3443066 26.08682034 -1.68218544 25.55152077 -1 25 C-0.36264134 22.20942676 -0.36264134 22.20942676 -0.390625 19.140625 C-0.35839844 18.02558594 -0.32617188 16.91054687 -0.29296875 15.76171875 C-0.27169922 14.02341797 -0.27169922 14.02341797 -0.25 12.25 C-0.22035156 11.07566406 -0.19070313 9.90132812 -0.16015625 8.69140625 C-0.08949273 5.79420178 -0.03677734 2.89780045 0 0 Z " fill="#EF9092" transform="translate(428,177)"/>
<path d="M0 0 C-5.92387075 3.94924717 -13.87914412 3.15988618 -20.8125 3.20532227 C-21.75976456 3.21522186 -22.70702911 3.22512146 -23.68299866 3.23532104 C-26.78864106 3.26670293 -29.89429871 3.29160052 -33 3.31640625 C-35.16333393 3.33699595 -37.32666403 3.35799293 -39.48999023 3.37937927 C-45.16490556 3.43439182 -50.83985593 3.48389235 -56.51483154 3.53222656 C-62.31330458 3.5825942 -68.11172716 3.63820036 -73.91015625 3.69335938 C-85.27339432 3.80068609 -96.63667633 3.90218696 -108 4 C-109.12695764 7.38087291 -109.14225565 10.0110986 -109.17578125 13.57421875 C-109.19962891 14.88197266 -109.22347656 16.18972656 -109.24804688 17.53710938 C-109.28299097 19.6061422 -109.31241581 21.67460601 -109.32592773 23.74389648 C-109.45576583 40.39713055 -109.45576583 40.39713055 -115.81640625 46.83984375 C-116.68072266 47.38318359 -116.68072266 47.38318359 -117.5625 47.9375 C-118.14128906 48.31777344 -118.72007812 48.69804687 -119.31640625 49.08984375 C-122.80188067 50.97410254 -125.6612263 51.11819457 -129.54296875 51.09765625 C-130.61611328 51.09443359 -131.68925781 51.09121094 -132.79492188 51.08789062 C-133.91447266 51.07951172 -135.03402344 51.07113281 -136.1875 51.0625 C-137.31865234 51.05798828 -138.44980469 51.05347656 -139.61523438 51.04882812 C-142.41020927 51.03703498 -145.2050782 51.0205765 -148 51 C-147.67 50.34 -147.34 49.68 -147 49 C-146.26885986 48.9906543 -145.53771973 48.98130859 -144.78442383 48.97167969 C-141.45977282 48.91787336 -138.13651322 48.83424496 -134.8125 48.75 C-133.08676758 48.72873047 -133.08676758 48.72873047 -131.32617188 48.70703125 C-130.21435547 48.67480469 -129.10253906 48.64257812 -127.95703125 48.609375 C-126.42526245 48.5779541 -126.42526245 48.5779541 -124.86254883 48.54589844 C-121.33842258 47.87383479 -119.67074009 46.32600709 -117 44 C-116.34 44 -115.68 44 -115 44 C-115 42.68 -115 41.36 -115 40 C-114.34 40 -113.68 40 -113 40 C-112.67 28.45 -112.34 16.9 -112 5 C-111.01 5 -110.02 5 -109 5 C-109 4.01 -109 3.02 -109 2 C-106.28944214 1.09648071 -104.69401699 0.86839689 -101.9077301 0.84851074 C-100.6607132 0.83599525 -100.6607132 0.83599525 -99.38850403 0.82322693 C-98.47985092 0.81904251 -97.57119781 0.81485809 -96.63500977 0.81054688 C-95.19558517 0.79810692 -95.19558517 0.79810692 -93.7270813 0.78541565 C-91.64162919 0.76800922 -89.55615746 0.75284403 -87.47067451 0.73963928 C-84.17179874 0.7186251 -80.87302132 0.69160077 -77.57420349 0.66296387 C-70.57034003 0.6032446 -63.56643094 0.55110174 -56.5625 0.5 C-48.45119169 0.44078628 -40.3399319 0.37849383 -32.22871208 0.30812073 C-28.97594125 0.28153229 -25.72316557 0.26072538 -22.47035217 0.2401123 C-20.47836066 0.22350898 -18.48637136 0.20663712 -16.49438477 0.18945312 C-15.13444145 0.1831765 -15.13444145 0.1831765 -13.74702454 0.17677307 C-12.91286011 0.16842941 -12.07869568 0.16008575 -11.21925354 0.15148926 C-10.49677712 0.14633553 -9.77430071 0.14118179 -9.02993107 0.13587189 C-6.96877761 0.0660864 -6.96877761 0.0660864 -4.92379665 -0.57196808 C-3 -1 -3 -1 0 0 Z " fill="#CA4747" transform="translate(274,288)"/>
<path d="M0 0 C0.54045834 0.16173675 1.08091667 0.32347349 1.63775253 0.49011135 C4.41113379 1.0887428 6.95734133 1.14041343 9.79595947 1.15821838 C10.9794397 1.1680072 12.16291992 1.17779602 13.38226318 1.18788147 C14.67698547 1.19363693 15.97170776 1.1993924 17.30566406 1.20532227 C18.68554984 1.21490452 20.06543269 1.22491481 21.4453125 1.23532104 C25.18873924 1.26233856 28.93217855 1.28336517 32.67564869 1.30332303 C36.58878172 1.32520205 40.50187615 1.35258136 44.41497803 1.37937927 C51.82384405 1.42928025 59.23273152 1.47422871 66.64163947 1.51740164 C75.07690554 1.56679619 83.51213287 1.62170609 91.94736147 1.67708123 C109.29820517 1.79086145 126.64908484 1.89770911 144 2 C144 2.66 144 3.32 144 4 C140.65855468 5.01110278 137.64871774 5.11017657 134.16607666 5.08229065 C132.97418228 5.07525116 131.7822879 5.06821167 130.55427551 5.06095886 C129.25020248 5.04801285 127.94612946 5.03506683 126.60253906 5.02172852 C125.21280731 5.01158213 123.82307219 5.00188885 122.43333435 4.99261475 C118.66298383 4.96616978 114.89271192 4.93338296 111.12242222 4.89946485 C107.18131303 4.86508613 103.24016178 4.83652962 99.29901123 4.80735779 C91.83696346 4.75123891 84.37496837 4.6898774 76.91297793 4.62663645 C68.41730989 4.55488996 59.92159969 4.4889817 51.42588091 4.42356598 C33.95053221 4.28887759 16.47525064 4.14685053 -1 4 C-1.33 3.34 -1.66 2.68 -2 2 C-1.34 2 -0.68 2 0 2 C0 1.34 0 0.68 0 0 Z " fill="#FAA09D" transform="translate(28,9)"/>
<path d="M0 0 C0.99 0.33 1.98 0.66 3 1 C2.52900879 1.70664795 2.05801758 2.4132959 1.57275391 3.14135742 C-5.21487648 15.47857633 -2.35731507 34.95750667 -2.38085938 48.5769043 C-2.39043674 51.87846148 -2.42424449 55.17911651 -2.4609375 58.48046875 C-2.45589203 59.47346481 -2.45084656 60.46646088 -2.44564819 61.48954773 C-2.5821557 71.31876215 -5.06270848 79.87000594 -12 87 C-12.93423645 83.98968256 -13.04449911 83.13349732 -12 80 C-11.01 79.01 -11.01 79.01 -10 78 C-9.29289322 76.35008418 -8.62056011 74.68437744 -8 73 C-7.34 73 -6.68 73 -6 73 C-5.98969254 72.28082901 -5.97938507 71.56165802 -5.96876526 70.82069397 C-5.87037871 64.00985217 -5.76780978 57.19908449 -5.66066074 50.38837528 C-5.60573209 46.88777087 -5.55236392 43.38715778 -5.50268555 39.88647461 C-5.44537 35.85261921 -5.38104503 31.818901 -5.31640625 27.78515625 C-5.29133751 25.91900414 -5.29133751 25.91900414 -5.26576233 24.01515198 C-5.03458725 10.33205031 -5.03458725 10.33205031 -4 5 C-1.95436096 3.76478577 -1.95436096 3.76478577 0 3 C0 2.01 0 1.02 0 0 Z " fill="#EB4356" transform="translate(85,121)"/>
<path d="M0 0 C0.66 0.33 1.32 0.66 2 1 C1.38125 1.721875 0.7625 2.44375 0.125 3.1875 C-5.86164555 11.11100146 -5.15681747 20.6112055 -5.24609375 30.109375 C-5.27903608 32.49739945 -5.31224766 34.88542019 -5.34570312 37.2734375 C-5.39301152 41.01006511 -5.43746503 44.74667813 -5.47680664 48.48339844 C-5.51679708 52.10887861 -5.56827377 55.73406208 -5.62109375 59.359375 C-5.6295079 60.46182556 -5.63792206 61.56427612 -5.64659119 62.70013428 C-5.80387278 72.69629552 -7.15920726 81.74718112 -11 91 C-11.95514676 87.92749994 -12.00170571 87.00591313 -11.0625 83.75 C-9.86983422 79.54059137 -9.84758644 76.34378647 -10 72 C-9.34 72 -8.68 72 -8 72 C-8.00222061 71.30810577 -8.00444122 70.61621155 -8.00672913 69.90335083 C-8.02687002 63.34306909 -8.04204393 56.78279613 -8.05181217 50.22249031 C-8.05700313 46.85078728 -8.06403091 43.47911006 -8.07543945 40.10742188 C-8.08764134 36.22004529 -8.09325949 32.33270482 -8.09765625 28.4453125 C-8.10281754 27.25011993 -8.10797882 26.05492737 -8.11329651 24.82351685 C-8.11363843 19.66089003 -8.05934563 14.50742764 -7.71655273 9.35498047 C-7.665952 8.58443329 -7.61535126 7.81388611 -7.56321716 7.01998901 C-6.81815446 4.34780753 -5.6635909 3.48070434 -3.4375 1.875 C-2.303125 1.25625 -1.16875 0.6375 0 0 Z " fill="#CD404D" transform="translate(399,240)"/>
<path d="M0 0 C-0.33 0.66 -0.66 1.32 -1 2 C45.53 2.33 92.06 2.66 140 3 C140 3.33 140 3.66 140 4 C90.5 4 41 4 -10 4 C-9.67 2.68 -9.34 1.36 -9 0 C-5.93109813 -1.53445094 -3.29905734 -0.54984289 0 0 Z " fill="#E69998" transform="translate(28,10)"/>
<path d="M0 0 C0.99 0 1.98 0 3 0 C3 0.66 3 1.32 3 2 C2.34 2 1.68 2 1 2 C-0.12695764 5.38087291 -0.14225565 8.0110986 -0.17578125 11.57421875 C-0.19962891 12.88197266 -0.22347656 14.18972656 -0.24804688 15.53710938 C-0.28299097 17.6061422 -0.31241581 19.67460601 -0.32592773 21.74389648 C-0.45576583 38.39713055 -0.45576583 38.39713055 -6.81640625 44.83984375 C-7.68072266 45.38318359 -7.68072266 45.38318359 -8.5625 45.9375 C-9.14128906 46.31777344 -9.72007812 46.69804687 -10.31640625 47.08984375 C-13.80188067 48.97410254 -16.6612263 49.11819457 -20.54296875 49.09765625 C-21.61611328 49.09443359 -22.68925781 49.09121094 -23.79492188 49.08789062 C-24.91447266 49.07951172 -26.03402344 49.07113281 -27.1875 49.0625 C-28.31865234 49.05798828 -29.44980469 49.05347656 -30.61523438 49.04882812 C-33.41020927 49.03703498 -36.2050782 49.0205765 -39 49 C-38.67 48.34 -38.34 47.68 -38 47 C-37.26885986 46.9906543 -36.53771973 46.98130859 -35.78442383 46.97167969 C-32.45977282 46.91787336 -29.13651322 46.83424496 -25.8125 46.75 C-24.08676758 46.72873047 -24.08676758 46.72873047 -22.32617188 46.70703125 C-21.21435547 46.67480469 -20.10253906 46.64257812 -18.95703125 46.609375 C-17.42526245 46.5779541 -17.42526245 46.5779541 -15.86254883 46.54589844 C-12.33842258 45.87383479 -10.67074009 44.32600709 -8 42 C-7.34 42 -6.68 42 -6 42 C-6 40.68 -6 39.36 -6 38 C-5.34 38 -4.68 38 -4 38 C-3.67 26.45 -3.34 14.9 -3 3 C-2.01 3 -1.02 3 0 3 C0 2.01 0 1.02 0 0 Z " fill="#CB4C50" transform="translate(165,290)"/>
<path d="M0 0 C0.33 0 0.66 0 1 0 C2.33895245 7.93453305 2.02712517 15.86143953 1.87890625 23.875 C1.85456737 25.41055547 1.83072579 26.9461189 1.80735779 28.48168945 C1.74489127 32.49958442 1.67572115 36.51733636 1.60510254 40.53509521 C1.53407834 44.64442499 1.46946624 48.75385519 1.40429688 52.86328125 C1.27576795 60.90896547 1.14014916 68.95450984 1 77 C0.34 77 -0.32 77 -1 77 C-1.02313836 67.25576086 -1.04092273 57.51152822 -1.05181217 47.76726723 C-1.05703772 43.24294695 -1.06412944 38.71864542 -1.07543945 34.19433594 C-1.08627995 29.83069041 -1.09227932 25.46706295 -1.09487724 21.103405 C-1.09672939 19.43598521 -1.10034599 17.76856645 -1.10573006 16.10115433 C-1.11295589 13.77135303 -1.11399029 11.44162705 -1.11352539 9.11181641 C-1.11712067 8.41770157 -1.12071594 7.72358673 -1.12442017 7.00843811 C-1.11405216 2.22810432 -1.11405216 2.22810432 0 0 Z " fill="#FBA09F" transform="translate(12,23)"/>
<path d="M0 0 C5.22617287 7.83925931 4.27756918 19.10995003 4.1953125 28.203125 C4.19106766 30.00882965 4.19106766 30.00882965 4.18673706 31.85101318 C4.17564902 35.65078175 4.15056606 39.45030411 4.125 43.25 C4.11495549 45.84504865 4.10583223 48.44010104 4.09765625 51.03515625 C4.07574708 57.35685314 4.04238486 63.67840897 4 70 C3.34 70 2.68 70 2 70 C1.9845388 69.08276657 1.9845388 69.08276657 1.96876526 68.14700317 C1.85921365 61.6885826 1.74476868 55.23026098 1.62768555 48.77197266 C1.58480491 46.37290551 1.54310515 43.97381691 1.50268555 41.57470703 C1.26797896 27.69514455 0.92371944 13.85239138 0 0 Z " fill="#C73E4E" transform="translate(389,110)"/>
<path d="M0 0 C4.54904258 6.82356387 4.29578892 13.75016356 4.265625 21.69921875 C4.26753845 22.81182571 4.2694519 23.92443268 4.27142334 25.070755 C4.27277982 27.41313911 4.26912103 29.75553088 4.26074219 32.09790039 C4.25000485 35.68588043 4.26067156 39.27336325 4.2734375 42.86132812 C4.27211641 45.1406261 4.26955505 47.41992378 4.265625 49.69921875 C4.26967346 50.77217697 4.27372192 51.84513519 4.27789307 52.9506073 C4.27158875 53.94876968 4.26528442 54.94693207 4.25878906 55.9753418 C4.25719788 56.85135544 4.25560669 57.72736908 4.25396729 58.62992859 C3.98190105 61.16890283 3.27861914 62.80886055 2 65 C0.86782856 52.96414669 1.11379817 41.1365172 1.76928711 29.06762695 C2.0656925 22.80275216 2.0188792 17.91950619 0 12 C-0.1953125 8.69140625 -0.1953125 8.69140625 -0.125 5.5625 C-0.10695313 4.51191406 -0.08890625 3.46132812 -0.0703125 2.37890625 C-0.04710937 1.59386719 -0.02390625 0.80882812 0 0 Z " fill="#E33F54" transform="translate(307,187)"/>
<path d="M0 0 C0.66 0.99 1.32 1.98 2 3 C1.35256836 4.04671875 0.70513672 5.0934375 0.03808594 6.171875 C-2.86319342 12.00960849 -2.60284923 17.8470436 -2.609375 24.25 C-2.62591125 25.50385498 -2.64244751 26.75770996 -2.65948486 28.04956055 C-2.6996527 31.35724501 -2.72309655 34.66447565 -2.73822021 37.97235107 C-2.75788956 41.35802642 -2.79984784 44.74342082 -2.83984375 48.12890625 C-2.91361667 54.75253515 -2.96532067 61.37605721 -3 68 C-3.66 68 -4.32 68 -5 68 C-5.05098549 60.91995339 -5.08585287 53.83995468 -5.10986328 46.75976562 C-5.11987994 44.35447419 -5.13349709 41.9491948 -5.15087891 39.54394531 C-5.1753184 36.07353733 -5.18652679 32.60329128 -5.1953125 29.1328125 C-5.20563507 28.06886261 -5.21595764 27.00491272 -5.22659302 25.90872192 C-5.22796935 16.6127075 -4.02530641 8.41654977 0 0 Z " fill="#D55E52" transform="translate(360,234)"/>
<path d="M0 0 C2.57005159 2.57005159 2.25060286 3.54734285 2.25537109 7.1171875 C2.26233002 8.18590088 2.26928894 9.25461426 2.27645874 10.35571289 C2.27546173 11.51707764 2.27446472 12.67844238 2.2734375 13.875 C2.29374207 16.32943151 2.31459313 18.78385856 2.3359375 21.23828125 C2.35846303 25.11120355 2.37497562 28.98394899 2.38085938 32.85693359 C2.39043148 36.59244931 2.4242865 40.32716506 2.4609375 44.0625 C2.45589203 45.2076709 2.45084656 46.3528418 2.44564819 47.53271484 C2.52537907 54.10878662 3.38566672 59.11679908 6.24160767 65.07202148 C6.49187714 65.70825439 6.74214661 66.3444873 7 67 C6.505 67.99 6.505 67.99 6 69 C5.17179247 67.50861523 4.36328261 66.00628797 3.5625 64.5 C3.11003906 63.6646875 2.65757812 62.829375 2.19140625 61.96875 C-0.70288294 54.75675072 -0.13439548 46.70942027 -0.09765625 39.0625 C-0.0962413 37.94182129 -0.09482635 36.82114258 -0.09336853 35.66650391 C-0.08780139 32.11097467 -0.07525498 28.55550998 -0.0625 25 C-0.05748075 22.579428 -0.05291859 20.158855 -0.04882812 17.73828125 C-0.03784272 11.82549906 -0.02113752 5.91275415 0 0 Z " fill="#D75F52" transform="translate(355,135)"/>
<path d="M0 0 C1.32 0 2.64 0 4 0 C4 2.64 4 5.28 4 8 C3.67 8 3.34 8 3 8 C2.67 21.86 2.34 35.72 2 50 C1.34 50 0.68 50 0 50 C0 33.5 0 17 0 0 Z " fill="#FBA7A5" transform="translate(11,239)"/>
<path d="M0 0 C1.65 0 3.3 0 5 0 C4.67 0.66 4.34 1.32 4 2 C3.34 2 2.68 2 2 2 C-0.19865923 7.42335942 -1.17874107 11.82430471 -1.23828125 17.66796875 C-1.246353 18.42161209 -1.25442474 19.17525543 -1.26274109 19.95173645 C-1.276565 21.54796054 -1.28729473 23.14421398 -1.29516602 24.74047852 C-1.30665922 26.36296325 -1.32706894 27.98541097 -1.35668945 29.60766602 C-1.82984939 41.95064335 -1.82984939 41.95064335 3 53 C6.18762365 55.12508244 8.26512223 55.5020163 12 56 C8.32653229 58.44897847 6.33643601 58.31537716 2 58 C-2.62111262 53.37888738 -3.34039275 46.34706878 -3.4168396 40.06124878 C-3.41076691 39.25470856 -3.40469421 38.44816833 -3.3984375 37.6171875 C-3.40130768 36.75868195 -3.40417786 35.90017639 -3.40713501 35.01565552 C-3.40916144 33.21567112 -3.40373196 31.41566397 -3.39111328 29.61572266 C-3.37499896 26.8748223 -3.39103058 24.13538734 -3.41015625 21.39453125 C-3.40817434 19.63541345 -3.40433174 17.87629655 -3.3984375 16.1171875 C-3.40451019 15.30659882 -3.41058289 14.49601013 -3.4168396 13.66085815 C-3.35214902 8.38482092 -2.3763763 4.72050121 0 0 Z " fill="#C34055" transform="translate(166,195)"/>
<path d="M0 0 C0.99 0.33 1.98 0.66 3 1 C2.29302979 2.06130127 2.29302979 2.06130127 1.57177734 3.14404297 C-4.85559157 14.82272603 -2.44982352 32.95755922 -2.625 45.875 C-2.66325767 48.22006535 -2.70231368 50.56511782 -2.7421875 52.91015625 C-2.83733047 58.60665499 -2.92261426 64.30323379 -3 70 C-3.33 70 -3.66 70 -4 70 C-4 48.55 -4 27.1 -4 5 C-2.68 4.34 -1.36 3.68 0 3 C0 2.01 0 1.02 0 0 Z " fill="#C34458" transform="translate(85,121)"/>
<path d="M0 0 C6.4 -0.49230769 6.4 -0.49230769 9.4375 2 C10.2109375 2.99 10.2109375 2.99 11 4 C10.67 4.99 10.34 5.98 10 7 C9.34 7 8.68 7 8 7 C7.67 9.64 7.34 12.28 7 15 C6.34 15 5.68 15 5 15 C5 12.36 5 9.72 5 7 C-0.27123847 5.64813169 -5.45837164 5.97502243 -10.84960938 6.12695312 C-14.85620964 6.18696388 -17.52209028 5.96282866 -21 4 C-19.87972412 3.96241577 -19.87972412 3.96241577 -18.73681641 3.92407227 C-15.36602733 3.80831787 -11.99553217 3.68549872 -8.625 3.5625 C-7.449375 3.52318359 -6.27375 3.48386719 -5.0625 3.44335938 C-3.94101562 3.40146484 -2.81953125 3.35957031 -1.6640625 3.31640625 C-0.62717285 3.27974854 0.4097168 3.24309082 1.47802734 3.20532227 C3.99425166 3.15835777 3.99425166 3.15835777 6 2 C3.03 1.505 3.03 1.505 0 1 C0 0.67 0 0.34 0 0 Z " fill="#F2C2C2" transform="translate(418,9)"/>
<path d="M0 0 C0.99 0 1.98 0 3 0 C3 0.66 3 1.32 3 2 C2.34 2 1.68 2 1 2 C-0.14294314 5.42882941 -0.20964472 8.24082838 -0.31640625 11.85546875 C-0.33718735 12.51710526 -0.35796844 13.17874176 -0.37937927 13.86042786 C-0.44464727 15.96934852 -0.50365344 18.07839135 -0.5625 20.1875 C-0.60570689 21.61915315 -0.64932188 23.05079404 -0.69335938 24.48242188 C-0.80030506 27.98815154 -0.90163641 31.49401786 -1 35 C-1.66 35 -2.32 35 -3 35 C-3 24.44 -3 13.88 -3 3 C-2.01 3 -1.02 3 0 3 C0 2.01 0 1.02 0 0 Z " fill="#D94254" transform="translate(165,290)"/>
<path d="M0 0 C-0.99 0.33 -1.98 0.66 -3 1 C-3.1546875 1.928125 -3.1546875 1.928125 -3.3125 2.875 C-4 5 -4 5 -7.0625 6.75 C-8.5165625 7.36875 -8.5165625 7.36875 -10 8 C-10 8.99 -10 9.98 -10 11 C-10.99 11.33 -11.98 11.66 -13 12 C-13.33 9.69 -13.66 7.38 -14 5 C-10.25 2 -10.25 2 -8 2 C-8 1.34 -8 0.68 -8 0 C-4.71303767 -0.79953138 -3.28976808 -1.09658936 0 0 Z " fill="#EEA4A0" transform="translate(22,9)"/>
<path d="M0 0 C-0.33 0.66 -0.66 1.32 -1 2 C8.57 2.33 18.14 2.66 28 3 C28 3.33 28 3.66 28 4 C15.46 4 2.92 4 -10 4 C-9.67 2.68 -9.34 1.36 -9 0 C-5.93109813 -1.53445094 -3.29905734 -0.54984289 0 0 Z " fill="#E99392" transform="translate(28,10)"/>
<path d="M0 0 C3.96 0.33 7.92 0.66 12 1 C11.67 10.57 11.34 20.14 11 30 C8.69 30 6.38 30 4 30 C4 29.34 4 28.68 4 28 C5.65 27.67 7.3 27.34 9 27 C9.02887236 23.18751574 9.04675492 19.3750593 9.0625 15.5625 C9.07087891 14.47388672 9.07925781 13.38527344 9.08789062 12.26367188 C9.09111328 11.22919922 9.09433594 10.19472656 9.09765625 9.12890625 C9.10289307 8.17056885 9.10812988 7.21223145 9.11352539 6.22485352 C9.2505313 4.02714661 9.2505313 4.02714661 8 3 C6.48530552 2.76807135 4.96245438 2.58784762 3.4375 2.4375 C2.61121094 2.35371094 1.78492188 2.26992187 0.93359375 2.18359375 C0.29550781 2.12300781 -0.34257812 2.06242188 -1 2 C-0.67 1.34 -0.34 0.68 0 0 Z " fill="#DA4954" transform="translate(412,203)"/>
<path d="M0 0 C0.33 0 0.66 0 1 0 C1.2475 1.19625 1.495 2.3925 1.75 3.625 C3.54363149 10.68742398 7.47620742 14.60607408 13 19 C13 19.33 13 19.66 13 20 C8.77519025 19.75148178 6.50021694 19.39147413 3.125 16.75 C-0.82878832 11.63333276 -0.12175516 6.20951339 0 0 Z " fill="#D53F4D" transform="translate(393,181)"/>
<path d="M0 0 C0.66 0.33 1.32 0.66 2 1 C2 6.94 2 12.88 2 19 C1.01 19 0.02 19 -1 19 C-1.77675511 15.60169639 -2.19382275 12.48880949 -2 9 C-1.67 8.67 -1.34 8.34 -1 8 C-0.76924918 6.65252916 -0.58846937 5.29622435 -0.4375 3.9375 C-0.293125 2.638125 -0.14875 1.33875 0 0 Z " fill="#F4A6AA" transform="translate(11,208)"/>
<path d="M0 0 C0.66 0.33 1.32 0.66 2 1 C1.68916714 7.06124079 -1.32388391 11.36828875 -5 16 C-5.66 16.33 -6.32 16.66 -7 17 C-6.25 10.25 -6.25 10.25 -4 8 C-3.29289322 6.35008418 -2.62056011 4.68437744 -2 3 C-1.34 3 -0.68 3 0 3 C0 2.01 0 1.02 0 0 Z " fill="#DA4352" transform="translate(79,191)"/>
<path d="M0 0 C0.33 0 0.66 0 1 0 C1.24216974 4.62559429 1.45706994 9.25135918 1.64697266 13.87939453 C1.71536117 15.45297855 1.7911445 17.02625951 1.87451172 18.59912109 C1.99318863 20.86256139 2.08507161 23.12576582 2.171875 25.390625 C2.21439392 26.09181458 2.25691284 26.79300415 2.30072021 27.51544189 C2.40631429 30.94667389 2.24432105 32.67315734 0.16113281 35.45996094 C-2.43807471 37.31217525 -3.87539256 37.3471786 -7 37 C-6 35 -6 35 -1 33 C-0.67 22.11 -0.34 11.22 0 0 Z " fill="#ECABAB" transform="translate(427,394)"/>
<path d="M0 0 C2.51083114 1.25541557 2.87125446 2.50063488 4 5 C2.35 5.33 0.7 5.66 -1 6 C-1 6.66 -1 7.32 -1 8 C-2.32 8 -3.64 8 -5 8 C-5 7.34 -5 6.68 -5 6 C-6.65 6 -8.3 6 -10 6 C-10 5.34 -10 4.68 -10 4 C-7.98177083 3.54427083 -5.96354167 3.08854167 -3.9453125 2.6328125 C-1.79280036 2.09525572 -1.79280036 2.09525572 0 0 Z " fill="#E34A48" transform="translate(268,247)"/>
<path d="M0 0 C2 2 2 2 3.25 4.875 C5.29811576 8.53234957 7.41214952 9.92701972 11 12 C8 13 8 13 5 12 C5 11.34 5 10.68 5 10 C3.02 10.33 1.04 10.66 -1 11 C-1 7.21293268 -0.5745952 3.73486879 0 0 Z " fill="#D8434D" transform="translate(83,307)"/>
<path d="M0 0 C0.33 0 0.66 0 1 0 C1.02505615 1.13018555 1.0501123 2.26037109 1.07592773 3.42480469 C1.17016956 7.62185817 1.27034926 11.81875263 1.37231445 16.015625 C1.41559986 17.83134234 1.45727944 19.64709871 1.49731445 21.46289062 C1.55517202 24.07433833 1.61882172 26.68559077 1.68359375 29.296875 C1.70030624 30.10743347 1.71701874 30.91799194 1.73423767 31.75311279 C1.82771396 35.31724723 2.04624584 38.56687935 3 42 C2.01 41.67 1.02 41.34 0 41 C0 27.47 0 13.94 0 0 Z " fill="#EE4053" transform="translate(162,204)"/>
<path d="M0 0 C4.26429585 6.39644377 4.27018742 12.53982506 4 20 C2 19 2 19 0.875 16.1875 C-0.54124814 10.89869835 -0.16040049 5.42688321 0 0 Z " fill="#D14351" transform="translate(307,187)"/>
<path d="M0 0 C0.66 0.33 1.32 0.66 2 1 C-1.36273671 8.36521359 -7.23342557 13.75430624 -14 18 C-14.66 18 -15.32 18 -16 18 C-16 17.34 -16 16.68 -16 16 C-15.360625 15.71125 -14.72125 15.4225 -14.0625 15.125 C-11.84793921 14.17176549 -11.84793921 14.17176549 -11 12 C-10.01 12 -9.02 12 -8 12 C-8 11.34 -8 10.68 -8 10 C-7.34 10 -6.68 10 -6 10 C-6 9.34 -6 8.68 -6 8 C-5.34 7.67 -4.68 7.34 -4 7 C-3.67 6.01 -3.34 5.02 -3 4 C-2.67 3.01 -2.34 2.02 -2 1 C-1.34 0.67 -0.68 0.34 0 0 Z " fill="#CE4351" transform="translate(301,265)"/>
<path d="M0 0 C0.33 0 0.66 0 1 0 C1.33 8.25 1.66 16.5 2 25 C3.65 25.33 5.3 25.66 7 26 C7 26.33 7 26.66 7 27 C4.69 27 2.38 27 0 27 C-0.33 27.66 -0.66 28.32 -1 29 C-0.67 19.43 -0.34 9.86 0 0 Z " fill="#DC5444" transform="translate(15,206)"/>
<path d="M0 0 C4.93867388 3.24541427 7.80262737 7.57981419 10 13 C9.67 13.66 9.34 14.32 9 15 C8.67 14.01 8.34 13.02 8 12 C7.34 12 6.68 12 6 12 C6 11.01 6 10.02 6 9 C5.01 9 4.02 9 3 9 C0 2.25 0 2.25 0 0 Z " fill="#D23E50" transform="translate(297,172)"/>
<path d="M0 0 C5.19926239 0.51992624 9.63713464 2.15038073 14 5 C14.99 6.485 14.99 6.485 16 8 C13.03 7.505 13.03 7.505 10 7 C10 6.01 10 5.02 10 4 C9.36191406 3.87882812 8.72382813 3.75765625 8.06640625 3.6328125 C7.24011719 3.46523437 6.41382813 3.29765625 5.5625 3.125 C4.73878906 2.96257812 3.91507812 2.80015625 3.06640625 2.6328125 C2.38449219 2.42398438 1.70257813 2.21515625 1 2 C0.67 1.34 0.34 0.68 0 0 Z " fill="#D14448" transform="translate(364,89)"/>
<path d="M0 0 C1.0209375 0.433125 1.0209375 0.433125 2.0625 0.875 C5.32893093 2.12597355 8.62846123 3.07447955 12 4 C8.32653229 6.44897847 6.33643601 6.31537716 2 6 C1.34 5.34 0.68 4.68 0 4 C0 2.68 0 1.36 0 0 Z " fill="#D6454E" transform="translate(166,247)"/>
<path d="M0 0 C6.57315478 -0.36517527 11.79485526 0.86380263 18 3 C18 3.33 18 3.66 18 4 C11.28299653 4.31985731 6.24273068 3.4793824 0 1 C0 0.67 0 0.34 0 0 Z " fill="#D3474A" transform="translate(262,155)"/>
<path d="M0 0 C3.78155989 1.26051996 4.25618367 2.56446606 6.25 5.9375 C6.79140625 6.83339844 7.3328125 7.72929688 7.890625 8.65234375 C8.25671875 9.42707031 8.6228125 10.20179687 9 11 C8.67 11.66 8.34 12.32 8 13 C4.1334716 9.777893 3.11940982 6.85077588 2 2 C1.34 2 0.68 2 0 2 C0 1.34 0 0.68 0 0 Z " fill="#DB3A4B" transform="translate(380,97)"/>
<path d="M0 0 C0 0.99 0 1.98 0 3 C-6.4 5.21538462 -6.4 5.21538462 -9.4375 4.125 C-9.953125 3.75375 -10.46875 3.3825 -11 3 C-7.14243493 0.84694043 -4.44870215 -0.39253254 0 0 Z " fill="#D84E4A" transform="translate(74,89)"/>
<path d="M0 0 C10.74259681 4.81776765 10.74259681 4.81776765 14 10 C13.01 10 12.02 10 11 10 C9.66666667 8.66666667 8.33333333 7.33333333 7 6 C4.36777038 4.74563813 4.36777038 4.74563813 2 4 C2 3.34 2 2.68 2 2 C1.34 2 0.68 2 0 2 C0 1.34 0 0.68 0 0 Z " fill="#CC434D" transform="translate(280,159)"/>
<path d="M0 0 C0.66 0.33 1.32 0.66 2 1 C1.34 1.66 0.68 2.32 0 3 C0 3.99 0 4.98 0 6 C-1.97746603 6.73080266 -3.98072489 7.39421747 -6 8 C-6.66 7.67 -7.32 7.34 -8 7 C-5.36 4.69 -2.72 2.38 0 0 Z " fill="#DB514E" transform="translate(61,93)"/>
<path d="M0 0 C2.33944736 0.28730055 4.6739143 0.61936779 7 1 C6.67 1.66 6.34 2.32 6 3 C5.01 3.33 4.02 3.66 3 4 C3 4.99 3 5.98 3 7 C2.01 7.33 1.02 7.66 0 8 C-0.38063221 5.6739143 -0.71269945 3.33944736 -1 1 C-0.67 0.67 -0.34 0.34 0 0 Z " fill="#F4C6AC" transform="translate(9,13)"/>
<path d="M0 0 C0.66 0 1.32 0 2 0 C2 1.32 2 2.64 2 4 C1.01 4.495 1.01 4.495 0 5 C0 6.65 0 8.3 0 10 C-0.66 10 -1.32 10 -2 10 C-2 9.34 -2 8.68 -2 8 C-2.66 7.67 -3.32 7.34 -4 7 C-2.92598892 4.08482708 -2.22189824 2.22189824 0 0 Z " fill="#E64A3F" transform="translate(364,230)"/>
<path d="M0 0 C0.78375 0.04125 1.5675 0.0825 2.375 0.125 C-3.16346154 5.97115385 -3.16346154 5.97115385 -6.625 7.125 C-7.615 6.795 -8.605 6.465 -9.625 6.125 C-8.35634318 3.58768636 -7.12790879 3.33853154 -4.625 2.125 C-2.625 0.125 -2.625 0.125 0 0 Z " fill="#D54652" transform="translate(67.625,209.875)"/>
<path d="M0 0 C0.66 0.33 1.32 0.66 2 1 C-0.6934857 4.32724704 -4.14465984 5.34771136 -8 7 C-9.88029239 8.53951047 -9.88029239 8.53951047 -11 10 C-11.66 9.67 -12.32 9.34 -13 9 C-8.9519972 5.29931105 -5.172581 2.04497388 0 0 Z " fill="#D2524A" transform="translate(155,159)"/>
<path d="M0 0 C-0.33 1.65 -0.66 3.3 -1 5 C-1.33 4.34 -1.66 3.68 -2 3 C-5.04581269 2.53045739 -5.04581269 2.53045739 -8.5625 2.375 C-9.76003906 2.30023438 -10.95757812 2.22546875 -12.19140625 2.1484375 C-13.11824219 2.09945313 -14.04507812 2.05046875 -15 2 C-15 1.67 -15 1.34 -15 1 C-13.43784452 0.83013455 -11.8752548 0.66426036 -10.3125 0.5 C-9.44238281 0.4071875 -8.57226562 0.314375 -7.67578125 0.21875 C-5.10276661 0.00840136 -2.58015636 -0.03719144 0 0 Z " fill="#D64545" transform="translate(341,321)"/>
<path d="M0 0 C3.98175544 2.10148204 6.35039045 4.36905358 9 8 C7.68 8 6.36 8 5 8 C5 7.34 5 6.68 5 6 C3.68 5.67 2.36 5.34 1 5 C0.67 3.35 0.34 1.7 0 0 Z " fill="#D5424D" transform="translate(65,223)"/>
<path d="M0 0 C0.99 0.33 1.98 0.66 3 1 C2.49339844 1.79664062 2.49339844 1.79664062 1.9765625 2.609375 C1.30753906 3.66898437 1.30753906 3.66898437 0.625 4.75 C0.18414062 5.44609375 -0.25671875 6.1421875 -0.7109375 6.859375 C-1.91880906 8.86517383 -2.98387737 10.89178296 -4 13 C-4 10.36 -4 7.72 -4 5 C-2.68 4.34 -1.36 3.68 0 3 C0 2.01 0 1.02 0 0 Z " fill="#DB4452" transform="translate(85,121)"/>
<path d="M0 0 C0.99 0 1.98 0 3 0 C3 4.62 3 9.24 3 14 C2.67 14 2.34 14 2 14 C1.67 12.35 1.34 10.7 1 9 C0.67 9 0.34 9 0 9 C0 6.03 0 3.06 0 0 Z " fill="#E99C98" transform="translate(11,16)"/>
<path d="M0 0 C0.99 0.33 1.98 0.66 3 1 C0.20283196 4.29078593 -3.19528578 6.06305458 -7 8 C-7.66 7.67 -8.32 7.34 -9 7 C-7.87720538 6.01830524 -6.75168527 5.03972702 -5.625 4.0625 C-4.68527344 3.24458984 -4.68527344 3.24458984 -3.7265625 2.41015625 C-2 1 -2 1 0 0 Z " fill="#E14F4A" transform="translate(375,221)"/>
<path d="M0 0 C0.99 0.33 1.98 0.66 3 1 C2.34 2.65 1.68 4.3 1 6 C2.32 6.66 3.64 7.32 5 8 C2 8 2 8 -0.6875 5.5 C-1.450625 4.675 -2.21375 3.85 -3 3 C-2.01 2.67 -1.02 2.34 0 2 C0 1.34 0 0.68 0 0 Z " fill="#D8524B" transform="translate(131,250)"/>
<path d="M0 0 C1.65 0 3.3 0 5 0 C4.67 0.66 4.34 1.32 4 2 C3.34 2 2.68 2 2 2 C1.731875 2.78375 1.46375 3.5675 1.1875 4.375 C0 7 0 7 -3 9 C-2.01 6.03 -1.02 3.06 0 0 Z " fill="#D24353" transform="translate(166,195)"/>
<path d="M0 0 C0.66 0 1.32 0 2 0 C1.34 3.96 0.68 7.92 0 12 C-0.66 12 -1.32 12 -2 12 C-2 10.02 -2 8.04 -2 6 C-1.34 6 -0.68 6 0 6 C0 4.02 0 2.04 0 0 Z " fill="#CA4854" transform="translate(393,249)"/>
<path d="M0 0 C0.33 0.66 0.66 1.32 1 2 C2.32 1.67 3.64 1.34 5 1 C5.99 2.32 6.98 3.64 8 5 C7.01 5.495 7.01 5.495 6 6 C5.67 5.34 5.34 4.68 5 4 C4.38125 4.350625 3.7625 4.70125 3.125 5.0625 C2.42375 5.371875 1.7225 5.68125 1 6 C0.34 5.67 -0.32 5.34 -1 5 C-0.67 3.35 -0.34 1.7 0 0 Z " fill="#E53A40" transform="translate(290,167)"/>
<path d="M0 0 C0.66 1.32 1.32 2.64 2 4 C1.01 4.33 0.02 4.66 -1 5 C-0.67 7.31 -0.34 9.62 0 12 C-1.76065836 9.35901246 -2.52722899 8.0257345 -3 5 C-2.67 4.01 -2.34 3.02 -2 2 C-1.34 2 -0.68 2 0 2 C0 1.34 0 0.68 0 0 Z " fill="#E44C4A" transform="translate(44,240)"/>
<path d="M0 0 C0.66 0.33 1.32 0.66 2 1 C2.73075648 3.3140622 3.40138258 5.64828869 4 8 C1.36 6.35 -1.28 4.7 -4 3 C-2.68 2.01 -1.36 1.02 0 0 Z " fill="#D85252" transform="translate(35,234)"/>
<path d="M0 0 C2.31 0 4.62 0 7 0 C6.01 0.495 6.01 0.495 5 1 C5 1.66 5 2.32 5 3 C3.35 3.66 1.7 4.32 0 5 C0 3.35 0 1.7 0 0 Z " fill="#E0434C" transform="translate(89,114)"/>
<path d="M0 0 C0.33 0 0.66 0 1 0 C1.08114106 1.77007714 1.13925505 3.54122098 1.1875 5.3125 C1.23970703 6.79169922 1.23970703 6.79169922 1.29296875 8.30078125 C1 11 1 11 -0.51171875 12.85546875 C-1.00285156 13.23316406 -1.49398437 13.61085937 -2 14 C-1.33333333 9.33333333 -0.66666667 4.66666667 0 0 Z " fill="#DB5B4A" transform="translate(44,178)"/>
<path d="M0 0 C2.125 0.9375 2.125 0.9375 4 2 C3.01 2 2.02 2 1 2 C1.33 2.99 1.66 3.98 2 5 C0.35 5 -1.3 5 -3 5 C-2.625 3.0625 -2.625 3.0625 -2 1 C-1.34 0.67 -0.68 0.34 0 0 Z " fill="#D8897D" transform="translate(21,9)"/>
<path d="M0 0 C1.65 0 3.3 0 5 0 C2.88229834 2.32947183 0.96664412 3.88750845 -2 5 C-2.99 4.67 -3.98 4.34 -5 4 C-4.360625 3.71125 -3.72125 3.4225 -3.0625 3.125 C-0.84793921 2.17176549 -0.84793921 2.17176549 0 0 Z " fill="#D24850" transform="translate(371,342)"/>
<path d="M0 0 C0.99 0.33 1.98 0.66 3 1 C2.5359375 1.7734375 2.5359375 1.7734375 2.0625 2.5625 C0.70940713 5.66665423 0.38640576 8.65115007 0 12 C-0.33 12 -0.66 12 -1 12 C-1.14285714 3.42857143 -1.14285714 3.42857143 0 0 Z " fill="#E25547" transform="translate(127,191)"/>
<path d="M0 0 C0.66 0.33 1.32 0.66 2 1 C0.07423885 3.43929746 -1.80090595 5.80090595 -4 8 C-4.25 5.6875 -4.25 5.6875 -4 3 C-2 1.1875 -2 1.1875 0 0 Z " fill="#CB4554" transform="translate(399,240)"/>
</svg>
